<mxfile host="app.diagrams.net" agent="Mozilla/5.0 (Windows NT 10.0; Win64; x64; rv:138.0) Gecko/20100101 Firefox/138.0" version="27.0.1" pages="4">
  <diagram name="not-air-gapped" id="B7nOE_syGitem45XS_YG">
    <mxGraphModel dx="2253" dy="752" grid="1" gridSize="10" guides="1" tooltips="1" connect="1" arrows="1" fold="1" page="1" pageScale="1" pageWidth="827" pageHeight="1169" math="0" shadow="0">
      <root>
        <mxCell id="0" />
        <mxCell id="1" parent="0" />
        <mxCell id="5whEyz88Ep6zTJ2r0MvK-30" value="" style="endArrow=classic;html=1;rounded=0;entryX=1;entryY=0.5;entryDx=0;entryDy=0;edgeStyle=elbowEdgeStyle;" parent="1" source="5whEyz88Ep6zTJ2r0MvK-12" target="5whEyz88Ep6zTJ2r0MvK-20" edge="1">
          <mxGeometry width="50" height="50" relative="1" as="geometry">
            <mxPoint x="130" y="290" as="sourcePoint" />
            <mxPoint x="180" y="240" as="targetPoint" />
          </mxGeometry>
        </mxCell>
        <mxCell id="QyTXSUz3Rflm1eO0fboJ-1" value="" style="container=1;collapsible=0;expand=0;recursiveResize=0;html=1;whiteSpace=wrap;strokeColor=#1192E8;fillColor=none;strokeWidth=1" parent="1" vertex="1">
          <mxGeometry x="-30" y="240" width="190" height="440" as="geometry" />
        </mxCell>
        <mxCell id="QyTXSUz3Rflm1eO0fboJ-2" value="Internet" style="shape=rect;fillColor=none;aspect=fixed;resizable=0;labelPosition=right;verticalLabelPosition=middle;align=left;verticalAlign=middle;strokeColor=none;part=1;spacingLeft=5;fontSize=14;" parent="QyTXSUz3Rflm1eO0fboJ-1" vertex="1">
          <mxGeometry width="48" height="48" relative="1" as="geometry" />
        </mxCell>
        <mxCell id="QyTXSUz3Rflm1eO0fboJ-3" value="" style="fillColor=#1192E8;shape=mxgraph.ibm_cloud.wikis;strokeColor=none;dashed=0;outlineConnect=0;html=1;labelPosition=center;verticalLabelPosition=bottom;verticalAlign=top;part=1;movable=0;resizable=0;rotatable=0;" parent="QyTXSUz3Rflm1eO0fboJ-2" vertex="1">
          <mxGeometry width="24" height="24" relative="1" as="geometry">
            <mxPoint x="12" y="12" as="offset" />
          </mxGeometry>
        </mxCell>
        <mxCell id="QyTXSUz3Rflm1eO0fboJ-4" value="" style="shape=rect;fillColor=#1192E8;aspect=fixed;resizable=0;labelPosition=right;verticalLabelPosition=middle;align=left;verticalAlign=middle;strokeColor=none;part=1;spacingLeft=5;fontSize=14;" parent="QyTXSUz3Rflm1eO0fboJ-1" vertex="1">
          <mxGeometry width="4" height="48" relative="1" as="geometry" />
        </mxCell>
        <mxCell id="5whEyz88Ep6zTJ2r0MvK-19" value="" style="aspect=fixed;perimeter=ellipsePerimeter;html=1;align=center;shadow=0;dashed=0;spacingTop=3;image;image=img/lib/active_directory/internet_cloud.svg;fontSize=19;fontColor=#FFFFFF;fillColor=#FF0000;opacity=50;" parent="QyTXSUz3Rflm1eO0fboJ-1" vertex="1">
          <mxGeometry x="9.41" y="120" width="171.18" height="107.84" as="geometry" />
        </mxCell>
        <mxCell id="5whEyz88Ep6zTJ2r0MvK-20" value="Entitled Container Registry" style="aspect=fixed;perimeter=ellipsePerimeter;align=center;shadow=0;dashed=0;fontColor=default;labelBackgroundColor=none;fontSize=12;spacingTop=3;image;image=img/lib/ibm/data/device_identity_service.svg;rounded=1;strokeColor=#FF0000;fillColor=#99CCFF;html=1;" parent="QyTXSUz3Rflm1eO0fboJ-1" vertex="1">
          <mxGeometry x="60" y="144.91999999999996" width="60" height="60" as="geometry" />
        </mxCell>
        <mxCell id="lYsHj0-HOmbcryvJocY0-1" value="" style="container=1;collapsible=0;expand=0;recursiveResize=0;html=1;whiteSpace=wrap;strokeColor=#1192E8;fillColor=none;strokeWidth=1" parent="1" vertex="1">
          <mxGeometry x="177" y="240" width="650" height="440" as="geometry" />
        </mxCell>
        <mxCell id="5whEyz88Ep6zTJ2r0MvK-2" value="Private cloud (connected)" style="shape=mxgraph.ibm.box;prType=region;fontStyle=0;verticalAlign=top;align=left;spacingLeft=32;spacingTop=4;fillColor=none;rounded=0;whiteSpace=wrap;html=1;strokeColor=#919191;strokeWidth=2;dashed=0;container=0;spacing=-4;collapsible=0;expand=0;recursiveResize=0;" parent="lYsHj0-HOmbcryvJocY0-1" vertex="1">
          <mxGeometry x="106" y="52" width="514" height="378" as="geometry" />
        </mxCell>
        <mxCell id="lYsHj0-HOmbcryvJocY0-2" value="Enterprise Network" style="shape=rect;fillColor=none;aspect=fixed;resizable=0;labelPosition=right;verticalLabelPosition=middle;align=left;verticalAlign=middle;strokeColor=none;part=1;spacingLeft=5;fontSize=14;" parent="lYsHj0-HOmbcryvJocY0-1" vertex="1">
          <mxGeometry width="48" height="48" relative="1" as="geometry" />
        </mxCell>
        <mxCell id="lYsHj0-HOmbcryvJocY0-3" value="" style="fillColor=#1192E8;shape=mxgraph.ibm_cloud.network--enterprise;strokeColor=none;dashed=0;outlineConnect=0;html=1;labelPosition=center;verticalLabelPosition=bottom;verticalAlign=top;part=1;movable=0;resizable=0;rotatable=0;" parent="lYsHj0-HOmbcryvJocY0-2" vertex="1">
          <mxGeometry width="24" height="24" relative="1" as="geometry">
            <mxPoint x="12" y="12" as="offset" />
          </mxGeometry>
        </mxCell>
        <mxCell id="lYsHj0-HOmbcryvJocY0-4" value="" style="shape=rect;fillColor=#1192E8;aspect=fixed;resizable=0;labelPosition=right;verticalLabelPosition=middle;align=left;verticalAlign=middle;strokeColor=none;part=1;spacingLeft=5;fontSize=14;" parent="lYsHj0-HOmbcryvJocY0-1" vertex="1">
          <mxGeometry width="4" height="48" relative="1" as="geometry" />
        </mxCell>
        <mxCell id="5whEyz88Ep6zTJ2r0MvK-6" value="Bastion Node" style="rounded=1;whiteSpace=wrap;html=1;verticalAlign=top;fontStyle=1;strokeColor=#009900;" parent="lYsHj0-HOmbcryvJocY0-1" vertex="1">
          <mxGeometry x="193" y="194" width="100" height="80" as="geometry" />
        </mxCell>
        <mxCell id="5whEyz88Ep6zTJ2r0MvK-9" value="" style="sketch=0;pointerEvents=1;shadow=0;dashed=0;html=1;strokeColor=#2072B8;labelPosition=center;verticalLabelPosition=bottom;verticalAlign=top;outlineConnect=0;align=center;shape=mxgraph.office.concepts.folder;fillColor=#FFFFFF;" parent="lYsHj0-HOmbcryvJocY0-1" vertex="1">
          <mxGeometry x="221" y="218" width="34.84" height="40" as="geometry" />
        </mxCell>
        <mxCell id="dJ0c_p-ur_7N0sOsxzoT-1" value="" style="aspect=fixed;perimeter=ellipsePerimeter;align=center;shadow=0;dashed=0;fontColor=default;labelBackgroundColor=none;fontSize=12;spacingTop=3;image;image=img/lib/ibm/data/device_identity_service.svg;rounded=1;strokeColor=#FF0000;fillColor=#99CCFF;html=1;" parent="lYsHj0-HOmbcryvJocY0-1" vertex="1">
          <mxGeometry x="224" y="228" width="28" height="28" as="geometry" />
        </mxCell>
        <mxCell id="0lk2qfuLnu1ggjMsAu-u-2" value="" style="container=1;collapsible=0;expand=0;recursiveResize=0;html=1;whiteSpace=wrap;strokeColor=#198038;fillColor=none;strokeWidth=1" vertex="1" parent="1">
          <mxGeometry x="-540" y="305" width="220" height="140" as="geometry" />
        </mxCell>
        <mxCell id="0lk2qfuLnu1ggjMsAu-u-3" value="OpenShift" style="shape=rect;fillColor=none;aspect=fixed;resizable=0;labelPosition=right;verticalLabelPosition=middle;align=left;verticalAlign=middle;strokeColor=none;part=1;spacingLeft=5;fontSize=14;" vertex="1" parent="0lk2qfuLnu1ggjMsAu-u-2">
          <mxGeometry width="48" height="48" relative="1" as="geometry" />
        </mxCell>
        <mxCell id="0lk2qfuLnu1ggjMsAu-u-4" value="" style="fillColor=#198038;shape=mxgraph.ibm_cloud.logo--openshift;strokeColor=none;dashed=0;outlineConnect=0;html=1;labelPosition=center;verticalLabelPosition=bottom;verticalAlign=top;part=1;movable=0;resizable=0;rotatable=0;" vertex="1" parent="0lk2qfuLnu1ggjMsAu-u-3">
          <mxGeometry width="24" height="24" relative="1" as="geometry">
            <mxPoint x="12" y="12" as="offset" />
          </mxGeometry>
        </mxCell>
        <mxCell id="0lk2qfuLnu1ggjMsAu-u-5" value="" style="shape=rect;fillColor=#198038;aspect=fixed;resizable=0;labelPosition=right;verticalLabelPosition=middle;align=left;verticalAlign=middle;strokeColor=none;part=1;spacingLeft=5;fontSize=14;" vertex="1" parent="0lk2qfuLnu1ggjMsAu-u-2">
          <mxGeometry width="4" height="48" relative="1" as="geometry" />
        </mxCell>
        <mxCell id="0lk2qfuLnu1ggjMsAu-u-6" value="" style="container=1;collapsible=0;expand=0;recursiveResize=0;html=1;whiteSpace=wrap;strokeColor=#1192E8;fillColor=none;strokeWidth=1" vertex="1" parent="1">
          <mxGeometry x="-770" y="100" width="220" height="140" as="geometry" />
        </mxCell>
        <mxCell id="0lk2qfuLnu1ggjMsAu-u-7" value="Z System" style="shape=rect;fillColor=none;aspect=fixed;resizable=0;labelPosition=right;verticalLabelPosition=middle;align=left;verticalAlign=middle;strokeColor=none;part=1;spacingLeft=5;fontSize=14;" vertex="1" parent="0lk2qfuLnu1ggjMsAu-u-6">
          <mxGeometry width="48" height="48" relative="1" as="geometry" />
        </mxCell>
        <mxCell id="0lk2qfuLnu1ggjMsAu-u-8" value="" style="fillColor=#1192E8;shape=mxgraph.ibm_cloud.z--systems;strokeColor=none;dashed=0;outlineConnect=0;html=1;labelPosition=center;verticalLabelPosition=bottom;verticalAlign=top;part=1;movable=0;resizable=0;rotatable=0;" vertex="1" parent="0lk2qfuLnu1ggjMsAu-u-7">
          <mxGeometry width="24" height="24" relative="1" as="geometry">
            <mxPoint x="12" y="12" as="offset" />
          </mxGeometry>
        </mxCell>
        <mxCell id="0lk2qfuLnu1ggjMsAu-u-9" value="" style="shape=rect;fillColor=#1192E8;aspect=fixed;resizable=0;labelPosition=right;verticalLabelPosition=middle;align=left;verticalAlign=middle;strokeColor=none;part=1;spacingLeft=5;fontSize=14;" vertex="1" parent="0lk2qfuLnu1ggjMsAu-u-6">
          <mxGeometry width="4" height="48" relative="1" as="geometry" />
        </mxCell>
        <mxCell id="0lk2qfuLnu1ggjMsAu-u-10" value="" style="container=1;collapsible=0;expand=0;recursiveResize=0;html=1;whiteSpace=wrap;strokeColor=#1192E8;fillColor=none;strokeWidth=1" vertex="1" parent="1">
          <mxGeometry x="-523" y="90" width="220" height="140" as="geometry" />
        </mxCell>
        <mxCell id="0lk2qfuLnu1ggjMsAu-u-11" value="Power Workspace" style="shape=rect;fillColor=none;aspect=fixed;resizable=0;labelPosition=right;verticalLabelPosition=middle;align=left;verticalAlign=middle;strokeColor=none;part=1;spacingLeft=5;fontSize=14;" vertex="1" parent="0lk2qfuLnu1ggjMsAu-u-10">
          <mxGeometry width="48" height="48" relative="1" as="geometry" />
        </mxCell>
        <mxCell id="0lk2qfuLnu1ggjMsAu-u-12" value="" style="fillColor=#1192E8;shape=mxgraph.ibm_cloud.ibm--power-vs;strokeColor=none;dashed=0;outlineConnect=0;html=1;labelPosition=center;verticalLabelPosition=bottom;verticalAlign=top;part=1;movable=0;resizable=0;rotatable=0;" vertex="1" parent="0lk2qfuLnu1ggjMsAu-u-11">
          <mxGeometry width="24" height="24" relative="1" as="geometry">
            <mxPoint x="12" y="12" as="offset" />
          </mxGeometry>
        </mxCell>
        <mxCell id="0lk2qfuLnu1ggjMsAu-u-13" value="" style="shape=rect;fillColor=#1192E8;aspect=fixed;resizable=0;labelPosition=right;verticalLabelPosition=middle;align=left;verticalAlign=middle;strokeColor=none;part=1;spacingLeft=5;fontSize=14;" vertex="1" parent="0lk2qfuLnu1ggjMsAu-u-10">
          <mxGeometry width="4" height="48" relative="1" as="geometry" />
        </mxCell>
        <mxCell id="0lk2qfuLnu1ggjMsAu-u-14" value="Bastion Host" style="shape=rect;fillColor=#FA4D56;aspect=fixed;resizable=0;labelPosition=center;verticalLabelPosition=bottom;align=center;verticalAlign=top;strokeColor=none;fontSize=14;" vertex="1" parent="1">
          <mxGeometry x="-640" y="397" width="48" height="48" as="geometry" />
        </mxCell>
        <mxCell id="0lk2qfuLnu1ggjMsAu-u-15" value="" style="fillColor=#ffffff;strokeColor=none;dashed=0;outlineConnect=0;html=1;labelPosition=center;verticalLabelPosition=bottom;verticalAlign=top;part=1;movable=0;resizable=0;rotatable=0;shape=mxgraph.ibm_cloud.bastion-host" vertex="1" parent="0lk2qfuLnu1ggjMsAu-u-14">
          <mxGeometry width="24" height="24" relative="1" as="geometry">
            <mxPoint x="12" y="12" as="offset" />
          </mxGeometry>
        </mxCell>
        <mxCell id="0lk2qfuLnu1ggjMsAu-u-16" value="Block Storage" style="shape=rect;fillColor=#0F62FE;aspect=fixed;resizable=0;labelPosition=center;verticalLabelPosition=bottom;align=center;verticalAlign=top;strokeColor=none;fontSize=14;" vertex="1" parent="1">
          <mxGeometry x="-730" y="490" width="48" height="48" as="geometry" />
        </mxCell>
        <mxCell id="0lk2qfuLnu1ggjMsAu-u-17" value="" style="fillColor=#ffffff;strokeColor=none;dashed=0;outlineConnect=0;html=1;labelPosition=center;verticalLabelPosition=bottom;verticalAlign=top;part=1;movable=0;resizable=0;rotatable=0;shape=mxgraph.ibm_cloud.block-storage" vertex="1" parent="0lk2qfuLnu1ggjMsAu-u-16">
          <mxGeometry width="24" height="24" relative="1" as="geometry">
            <mxPoint x="12" y="12" as="offset" />
          </mxGeometry>
        </mxCell>
        <mxCell id="5whEyz88Ep6zTJ2r0MvK-1" value="Networking" parent="0" />
        <mxCell id="5whEyz88Ep6zTJ2r0MvK-3" value="" style="edgeStyle=orthogonalEdgeStyle;rounded=0;orthogonalLoop=1;jettySize=auto;html=1;fontSize=8;dashed=1;exitX=1;exitY=0.5;exitDx=0;exitDy=0;entryX=0.855;entryY=0;entryDx=0;entryDy=0;entryPerimeter=0;" parent="5whEyz88Ep6zTJ2r0MvK-1" source="5whEyz88Ep6zTJ2r0MvK-18" target="5whEyz88Ep6zTJ2r0MvK-15" edge="1">
          <mxGeometry relative="1" as="geometry">
            <mxPoint x="750" y="500" as="sourcePoint" />
            <mxPoint x="720" y="620" as="targetPoint" />
            <Array as="points">
              <mxPoint x="719" y="340" />
            </Array>
          </mxGeometry>
        </mxCell>
        <mxCell id="5whEyz88Ep6zTJ2r0MvK-4" value="Images&lt;br&gt;are pulled from private&lt;br&gt;registry when pods&lt;br&gt;start" style="edgeLabel;html=1;align=center;verticalAlign=middle;resizable=0;points=[];" parent="5whEyz88Ep6zTJ2r0MvK-3" vertex="1" connectable="0">
          <mxGeometry x="0.191" y="1" relative="1" as="geometry">
            <mxPoint as="offset" />
          </mxGeometry>
        </mxCell>
        <mxCell id="5whEyz88Ep6zTJ2r0MvK-10" value="" style="edgeStyle=orthogonalEdgeStyle;rounded=0;orthogonalLoop=1;jettySize=auto;html=1;fontSize=7;entryX=0;entryY=0.5;entryDx=0;entryDy=0;exitX=0.5;exitY=0;exitDx=0;exitDy=0;" parent="5whEyz88Ep6zTJ2r0MvK-1" source="5whEyz88Ep6zTJ2r0MvK-6" target="5whEyz88Ep6zTJ2r0MvK-18" edge="1">
          <mxGeometry relative="1" as="geometry">
            <mxPoint x="40" y="430" as="sourcePoint" />
            <mxPoint x="370" y="510" as="targetPoint" />
          </mxGeometry>
        </mxCell>
        <mxCell id="5whEyz88Ep6zTJ2r0MvK-11" value="...from the entitled&lt;br&gt;registry to the&lt;br&gt;private registry" style="edgeLabel;html=1;align=center;verticalAlign=middle;resizable=0;points=[];fontSize=10;" parent="5whEyz88Ep6zTJ2r0MvK-10" vertex="1" connectable="0">
          <mxGeometry x="-0.04" relative="1" as="geometry">
            <mxPoint x="27" y="20" as="offset" />
          </mxGeometry>
        </mxCell>
        <mxCell id="5whEyz88Ep6zTJ2r0MvK-12" value="&lt;div&gt;Proxy&lt;/div&gt;&lt;div&gt;(optional)&lt;/div&gt;" style="pointerEvents=1;shadow=0;dashed=0;html=1;strokeColor=none;fillColor=#4495D1;labelPosition=center;verticalLabelPosition=bottom;verticalAlign=top;align=center;outlineConnect=0;shape=mxgraph.veeam.2d.proxy;" parent="5whEyz88Ep6zTJ2r0MvK-1" vertex="1">
          <mxGeometry x="210" y="390" width="40" height="50" as="geometry" />
        </mxCell>
        <mxCell id="5whEyz88Ep6zTJ2r0MvK-13" value="&lt;div&gt;Bastion Node&lt;/div&gt;&lt;div&gt;mirrors images&lt;/div&gt;" style="edgeStyle=orthogonalEdgeStyle;rounded=0;orthogonalLoop=1;jettySize=auto;html=1;dashed=1;dashPattern=1 1;strokeWidth=2;exitX=0;exitY=0.5;exitDx=0;exitDy=0;" parent="5whEyz88Ep6zTJ2r0MvK-1" source="5whEyz88Ep6zTJ2r0MvK-6" target="5whEyz88Ep6zTJ2r0MvK-12" edge="1">
          <mxGeometry relative="1" as="geometry">
            <mxPoint x="380" y="370" as="sourcePoint" />
            <Array as="points">
              <mxPoint x="340" y="480" />
              <mxPoint x="340" y="410" />
            </Array>
          </mxGeometry>
        </mxCell>
        <mxCell id="5whEyz88Ep6zTJ2r0MvK-14" value="OpenShfit" style="" parent="0" />
        <mxCell id="5whEyz88Ep6zTJ2r0MvK-15" value="OpenShift" style="fontStyle=0;verticalAlign=middle;align=center;spacingTop=-2;fillColor=#FF0000;rounded=0;whiteSpace=wrap;html=1;strokeColor=none;strokeWidth=3;dashed=0;container=1;collapsible=0;expand=0;recursiveResize=0;fontColor=#FFFFFF;fontSize=19;" parent="5whEyz88Ep6zTJ2r0MvK-14" vertex="1">
          <mxGeometry x="360" y="534" width="420" height="59" as="geometry" />
        </mxCell>
        <mxCell id="5whEyz88Ep6zTJ2r0MvK-16" value="Cloud Pak + Cartridges" parent="0" />
        <mxCell id="5whEyz88Ep6zTJ2r0MvK-17" value="Infra services" parent="0" />
        <mxCell id="5whEyz88Ep6zTJ2r0MvK-18" value="Private registry&lt;br&gt;inside private cloud" style="aspect=fixed;perimeter=ellipsePerimeter;html=1;align=center;shadow=0;dashed=0;fontColor=#4277BB;labelBackgroundColor=#ffffff;fontSize=12;spacingTop=3;image;image=img/lib/ibm/data/device_identity_service.svg;rounded=1;strokeColor=#FF0000;fillColor=#99CCFF;" parent="5whEyz88Ep6zTJ2r0MvK-17" vertex="1">
          <mxGeometry x="570" y="310" width="60" height="60" as="geometry" />
        </mxCell>
        <mxCell id="5whEyz88Ep6zTJ2r0MvK-21" value="Infrastructure" style="" parent="0" />
        <mxCell id="5whEyz88Ep6zTJ2r0MvK-22" value="Infrastructure (compute, storage, network)" style="fontStyle=0;verticalAlign=middle;align=center;spacingTop=-2;fillColor=none;rounded=0;whiteSpace=wrap;html=1;strokeColor=#4376BB;strokeWidth=3;dashed=0;container=1;collapsible=0;expand=0;recursiveResize=0;" parent="5whEyz88Ep6zTJ2r0MvK-21" vertex="1">
          <mxGeometry x="360" y="600" width="420" height="45" as="geometry" />
        </mxCell>
      </root>
    </mxGraphModel>
  </diagram>
  <diagram name="semi-air-gapped" id="Dmh-yNLKq76zJFFFGnKb">
    <mxGraphModel dx="2507" dy="885" grid="1" gridSize="10" guides="1" tooltips="1" connect="1" arrows="1" fold="1" page="1" pageScale="1" pageWidth="827" pageHeight="1169" math="0" shadow="0">
      <root>
        <mxCell id="-MQxg3rOfCB3Vdu6WzqN-0" />
        <mxCell id="-MQxg3rOfCB3Vdu6WzqN-1" value="Networking" parent="-MQxg3rOfCB3Vdu6WzqN-0" />
        <mxCell id="nmNsUxY7JSW0cqrjZA0c-8" value="Private cloud (disconnected)" style="shape=mxgraph.ibm.box;prType=region;fontStyle=0;verticalAlign=top;align=left;spacingLeft=32;spacingTop=4;fillColor=none;rounded=0;whiteSpace=wrap;html=1;strokeColor=#919191;strokeWidth=2;dashed=0;container=0;spacing=-4;collapsible=0;expand=0;recursiveResize=0;" vertex="1" parent="-MQxg3rOfCB3Vdu6WzqN-1">
          <mxGeometry x="350" y="380" width="460" height="380" as="geometry" />
        </mxCell>
        <mxCell id="nmNsUxY7JSW0cqrjZA0c-0" value="" style="container=1;collapsible=0;expand=0;recursiveResize=0;html=1;whiteSpace=wrap;strokeColor=#1192E8;fillColor=none;strokeWidth=1" vertex="1" parent="-MQxg3rOfCB3Vdu6WzqN-1">
          <mxGeometry x="220" y="240" width="607" height="540" as="geometry" />
        </mxCell>
        <mxCell id="nmNsUxY7JSW0cqrjZA0c-1" value="Enterprise Network" style="shape=rect;fillColor=none;aspect=fixed;resizable=0;labelPosition=right;verticalLabelPosition=middle;align=left;verticalAlign=middle;strokeColor=none;part=1;spacingLeft=5;fontSize=14;" vertex="1" parent="nmNsUxY7JSW0cqrjZA0c-0">
          <mxGeometry width="48" height="48" relative="1" as="geometry" />
        </mxCell>
        <mxCell id="nmNsUxY7JSW0cqrjZA0c-2" value="" style="fillColor=#1192E8;shape=mxgraph.ibm_cloud.network--enterprise;strokeColor=none;dashed=0;outlineConnect=0;html=1;labelPosition=center;verticalLabelPosition=bottom;verticalAlign=top;part=1;movable=0;resizable=0;rotatable=0;" vertex="1" parent="nmNsUxY7JSW0cqrjZA0c-1">
          <mxGeometry width="24" height="24" relative="1" as="geometry">
            <mxPoint x="12" y="12" as="offset" />
          </mxGeometry>
        </mxCell>
        <mxCell id="nmNsUxY7JSW0cqrjZA0c-3" value="" style="shape=rect;fillColor=#1192E8;aspect=fixed;resizable=0;labelPosition=right;verticalLabelPosition=middle;align=left;verticalAlign=middle;strokeColor=none;part=1;spacingLeft=5;fontSize=14;" vertex="1" parent="nmNsUxY7JSW0cqrjZA0c-0">
          <mxGeometry width="4" height="48" relative="1" as="geometry" />
        </mxCell>
        <mxCell id="nmNsUxY7JSW0cqrjZA0c-4" value="Bastion Node" style="rounded=1;whiteSpace=wrap;html=1;verticalAlign=top;fontStyle=1;strokeColor=#009900;" vertex="1" parent="nmNsUxY7JSW0cqrjZA0c-0">
          <mxGeometry x="193" y="194" width="100" height="80" as="geometry" />
        </mxCell>
        <mxCell id="nmNsUxY7JSW0cqrjZA0c-5" value="" style="sketch=0;pointerEvents=1;shadow=0;dashed=0;html=1;strokeColor=none;fillColor=#005F4B;labelPosition=center;verticalLabelPosition=bottom;verticalAlign=top;align=center;outlineConnect=0;shape=mxgraph.veeam2.usb_drive;" vertex="1" parent="nmNsUxY7JSW0cqrjZA0c-0">
          <mxGeometry x="32" y="311" width="60" height="30" as="geometry" />
        </mxCell>
        <mxCell id="nmNsUxY7JSW0cqrjZA0c-6" style="edgeStyle=orthogonalEdgeStyle;rounded=0;orthogonalLoop=1;jettySize=auto;html=1;fontSize=8;dashed=1;dashPattern=1 4;strokeWidth=3;entryX=0;entryY=0.5;entryDx=0;entryDy=0;" edge="1" parent="nmNsUxY7JSW0cqrjZA0c-0" source="nmNsUxY7JSW0cqrjZA0c-5" target="nmNsUxY7JSW0cqrjZA0c-4">
          <mxGeometry relative="1" as="geometry">
            <mxPoint x="30" y="270" as="sourcePoint" />
            <mxPoint x="240" y="240" as="targetPoint" />
            <Array as="points">
              <mxPoint x="62" y="270" />
              <mxPoint x="150" y="270" />
              <mxPoint x="150" y="234" />
            </Array>
          </mxGeometry>
        </mxCell>
        <mxCell id="nmNsUxY7JSW0cqrjZA0c-7" value="" style="sketch=0;pointerEvents=1;shadow=0;dashed=0;html=1;strokeColor=#2072B8;labelPosition=center;verticalLabelPosition=bottom;verticalAlign=top;outlineConnect=0;align=center;shape=mxgraph.office.concepts.folder;fillColor=#FFFFFF;" vertex="1" parent="nmNsUxY7JSW0cqrjZA0c-0">
          <mxGeometry x="216" y="214.41" width="43.68" height="49.18" as="geometry" />
        </mxCell>
        <mxCell id="nmNsUxY7JSW0cqrjZA0c-22" value="&lt;div&gt;Private registry&lt;/div&gt;&lt;div&gt;outside private cloud&lt;/div&gt;" style="aspect=fixed;perimeter=ellipsePerimeter;html=1;align=center;shadow=0;dashed=0;fontColor=#4277BB;labelBackgroundColor=#ffffff;fontSize=12;spacingTop=3;image;image=img/lib/ibm/data/device_identity_service.svg;rounded=1;strokeColor=#FF0000;fillColor=#99CCFF;" vertex="1" parent="nmNsUxY7JSW0cqrjZA0c-0">
          <mxGeometry x="500" y="20" width="60" height="60" as="geometry" />
        </mxCell>
        <mxCell id="nmNsUxY7JSW0cqrjZA0c-9" value="" style="edgeStyle=orthogonalEdgeStyle;rounded=0;orthogonalLoop=1;jettySize=auto;html=1;dashed=1;dashPattern=1 1;strokeWidth=2;exitX=0;exitY=0.5;exitDx=0;exitDy=0;" edge="1" parent="-MQxg3rOfCB3Vdu6WzqN-1" source="nmNsUxY7JSW0cqrjZA0c-26" target="nmNsUxY7JSW0cqrjZA0c-18">
          <mxGeometry relative="1" as="geometry">
            <mxPoint x="-230" y="780" as="sourcePoint" />
          </mxGeometry>
        </mxCell>
        <mxCell id="nmNsUxY7JSW0cqrjZA0c-10" value="" style="container=1;collapsible=0;expand=0;recursiveResize=0;html=1;whiteSpace=wrap;strokeColor=#1192E8;fillColor=none;strokeWidth=1" vertex="1" parent="-MQxg3rOfCB3Vdu6WzqN-1">
          <mxGeometry x="-220" y="240" width="160" height="540" as="geometry" />
        </mxCell>
        <mxCell id="nmNsUxY7JSW0cqrjZA0c-11" value="Internet" style="shape=rect;fillColor=none;aspect=fixed;resizable=0;labelPosition=right;verticalLabelPosition=middle;align=left;verticalAlign=middle;strokeColor=none;part=1;spacingLeft=5;fontSize=14;" vertex="1" parent="nmNsUxY7JSW0cqrjZA0c-10">
          <mxGeometry width="48" height="48" relative="1" as="geometry" />
        </mxCell>
        <mxCell id="nmNsUxY7JSW0cqrjZA0c-12" value="" style="fillColor=#1192E8;shape=mxgraph.ibm_cloud.wikis;strokeColor=none;dashed=0;outlineConnect=0;html=1;labelPosition=center;verticalLabelPosition=bottom;verticalAlign=top;part=1;movable=0;resizable=0;rotatable=0;" vertex="1" parent="nmNsUxY7JSW0cqrjZA0c-11">
          <mxGeometry width="24" height="24" relative="1" as="geometry">
            <mxPoint x="12" y="12" as="offset" />
          </mxGeometry>
        </mxCell>
        <mxCell id="nmNsUxY7JSW0cqrjZA0c-13" value="" style="shape=rect;fillColor=#1192E8;aspect=fixed;resizable=0;labelPosition=right;verticalLabelPosition=middle;align=left;verticalAlign=middle;strokeColor=none;part=1;spacingLeft=5;fontSize=14;" vertex="1" parent="nmNsUxY7JSW0cqrjZA0c-10">
          <mxGeometry width="4" height="48" relative="1" as="geometry" />
        </mxCell>
        <mxCell id="nmNsUxY7JSW0cqrjZA0c-14" value="" style="container=1;collapsible=0;expand=0;recursiveResize=0;html=1;whiteSpace=wrap;strokeColor=#1192E8;fillColor=none;strokeWidth=1" vertex="1" parent="-MQxg3rOfCB3Vdu6WzqN-1">
          <mxGeometry x="-30" y="240" width="222" height="540" as="geometry" />
        </mxCell>
        <mxCell id="nmNsUxY7JSW0cqrjZA0c-15" value="Enterprise Network&#xa;Internet facing" style="shape=rect;fillColor=none;aspect=fixed;resizable=0;labelPosition=right;verticalLabelPosition=middle;align=left;verticalAlign=middle;strokeColor=none;part=1;spacingLeft=5;fontSize=14;" vertex="1" parent="nmNsUxY7JSW0cqrjZA0c-14">
          <mxGeometry width="48" height="48" relative="1" as="geometry" />
        </mxCell>
        <mxCell id="nmNsUxY7JSW0cqrjZA0c-16" value="" style="fillColor=#1192E8;shape=mxgraph.ibm_cloud.network--public;strokeColor=none;dashed=0;outlineConnect=0;html=1;labelPosition=center;verticalLabelPosition=bottom;verticalAlign=top;part=1;movable=0;resizable=0;rotatable=0;" vertex="1" parent="nmNsUxY7JSW0cqrjZA0c-15">
          <mxGeometry width="24" height="24" relative="1" as="geometry">
            <mxPoint x="12" y="12" as="offset" />
          </mxGeometry>
        </mxCell>
        <mxCell id="nmNsUxY7JSW0cqrjZA0c-17" value="" style="shape=rect;fillColor=#1192E8;aspect=fixed;resizable=0;labelPosition=right;verticalLabelPosition=middle;align=left;verticalAlign=middle;strokeColor=none;part=1;spacingLeft=5;fontSize=14;" vertex="1" parent="nmNsUxY7JSW0cqrjZA0c-14">
          <mxGeometry width="4" height="48" relative="1" as="geometry" />
        </mxCell>
        <mxCell id="nmNsUxY7JSW0cqrjZA0c-18" value="Optional&lt;br&gt;Proxy" style="pointerEvents=1;shadow=0;dashed=0;html=1;strokeColor=none;fillColor=#4495D1;labelPosition=center;verticalLabelPosition=bottom;verticalAlign=top;align=center;outlineConnect=0;shape=mxgraph.veeam.2d.proxy;" vertex="1" parent="nmNsUxY7JSW0cqrjZA0c-14">
          <mxGeometry x="5" y="291" width="44.8" height="44.8" as="geometry" />
        </mxCell>
        <mxCell id="nmNsUxY7JSW0cqrjZA0c-19" value="" style="sketch=0;pointerEvents=1;shadow=0;dashed=0;html=1;strokeColor=none;fillColor=#505050;labelPosition=center;verticalLabelPosition=bottom;verticalAlign=top;outlineConnect=0;align=center;shape=mxgraph.office.devices.workstation;" vertex="1" parent="nmNsUxY7JSW0cqrjZA0c-14">
          <mxGeometry x="70" y="421" width="50" height="55" as="geometry" />
        </mxCell>
        <mxCell id="nmNsUxY7JSW0cqrjZA0c-20" value="" style="aspect=fixed;perimeter=ellipsePerimeter;align=center;shadow=0;dashed=0;fontColor=default;labelBackgroundColor=none;fontSize=12;spacingTop=3;image;image=img/lib/ibm/data/device_identity_service.svg;rounded=1;strokeColor=#FF0000;fillColor=#99CCFF;html=1;" vertex="1" parent="-MQxg3rOfCB3Vdu6WzqN-1">
          <mxGeometry x="444" y="469" width="28" height="28" as="geometry" />
        </mxCell>
        <mxCell id="nmNsUxY7JSW0cqrjZA0c-21" value="OpenShift" style="fontStyle=0;verticalAlign=middle;align=center;spacingTop=-2;fillColor=#FF0000;rounded=0;whiteSpace=wrap;html=1;strokeColor=none;strokeWidth=3;dashed=0;container=1;collapsible=0;expand=0;recursiveResize=0;fontColor=#FFFFFF;fontSize=19;" vertex="1" parent="-MQxg3rOfCB3Vdu6WzqN-1">
          <mxGeometry x="360" y="626" width="420" height="59" as="geometry" />
        </mxCell>
        <mxCell id="nmNsUxY7JSW0cqrjZA0c-23" value="" style="aspect=fixed;perimeter=ellipsePerimeter;html=1;align=center;shadow=0;dashed=0;spacingTop=3;image;image=img/lib/active_directory/internet_cloud.svg;fontSize=19;fontColor=#FFFFFF;fillColor=#FF0000;opacity=50;" vertex="1" parent="-MQxg3rOfCB3Vdu6WzqN-1">
          <mxGeometry x="-205" y="337" width="150" height="94.5" as="geometry" />
        </mxCell>
        <mxCell id="nmNsUxY7JSW0cqrjZA0c-24" value="Entitled&lt;br&gt;Container Registry" style="aspect=fixed;perimeter=ellipsePerimeter;align=center;shadow=0;dashed=0;fontColor=default;labelBackgroundColor=none;fontSize=12;spacingTop=3;image;image=img/lib/ibm/data/device_identity_service.svg;rounded=1;strokeColor=#FF0000;fillColor=#99CCFF;html=1;" vertex="1" parent="-MQxg3rOfCB3Vdu6WzqN-1">
          <mxGeometry x="-156" y="355" width="60" height="60" as="geometry" />
        </mxCell>
        <mxCell id="nmNsUxY7JSW0cqrjZA0c-25" value="" style="edgeStyle=orthogonalEdgeStyle;rounded=0;orthogonalLoop=1;jettySize=auto;html=1;dashed=1;dashPattern=1 4;" edge="1" parent="-MQxg3rOfCB3Vdu6WzqN-1" source="nmNsUxY7JSW0cqrjZA0c-18" target="nmNsUxY7JSW0cqrjZA0c-24">
          <mxGeometry relative="1" as="geometry">
            <mxPoint x="-70" y="720" as="targetPoint" />
          </mxGeometry>
        </mxCell>
        <mxCell id="nmNsUxY7JSW0cqrjZA0c-26" value="Internet-connected server" style="rounded=1;whiteSpace=wrap;html=1;verticalAlign=top;fontStyle=1" vertex="1" parent="-MQxg3rOfCB3Vdu6WzqN-1">
          <mxGeometry x="48" y="429" width="97" height="244" as="geometry" />
        </mxCell>
        <mxCell id="nmNsUxY7JSW0cqrjZA0c-27" value="&lt;div&gt;Install Tool&amp;nbsp;&lt;/div&gt;&lt;div&gt;and Data&lt;/div&gt;" style="sketch=0;pointerEvents=1;shadow=0;dashed=0;html=1;strokeColor=#2072B8;labelPosition=center;verticalLabelPosition=bottom;verticalAlign=top;outlineConnect=0;align=center;shape=mxgraph.office.concepts.folder;fillColor=#FFFFFF;" vertex="1" parent="-MQxg3rOfCB3Vdu6WzqN-1">
          <mxGeometry x="58" y="508" width="83" height="117" as="geometry" />
        </mxCell>
        <mxCell id="nmNsUxY7JSW0cqrjZA0c-28" value="Infrastructure (compute, storage, network)" style="fontStyle=0;verticalAlign=middle;align=center;spacingTop=-2;fillColor=none;rounded=0;whiteSpace=wrap;html=1;strokeColor=#4376BB;strokeWidth=3;dashed=0;container=1;collapsible=0;expand=0;recursiveResize=0;" vertex="1" parent="-MQxg3rOfCB3Vdu6WzqN-1">
          <mxGeometry x="360" y="692" width="420" height="45" as="geometry" />
        </mxCell>
        <mxCell id="nmNsUxY7JSW0cqrjZA0c-29" style="edgeStyle=orthogonalEdgeStyle;rounded=0;orthogonalLoop=1;jettySize=auto;html=1;fontSize=8;" edge="1" parent="-MQxg3rOfCB3Vdu6WzqN-1" source="nmNsUxY7JSW0cqrjZA0c-27" target="nmNsUxY7JSW0cqrjZA0c-5">
          <mxGeometry relative="1" as="geometry">
            <mxPoint x="80" y="775" as="sourcePoint" />
          </mxGeometry>
        </mxCell>
        <mxCell id="nmNsUxY7JSW0cqrjZA0c-30" value="Directories holding&lt;br&gt;install tools and data&lt;br&gt;are shipped" style="edgeLabel;html=1;align=center;verticalAlign=middle;resizable=0;points=[];fontSize=13;" vertex="1" connectable="0" parent="nmNsUxY7JSW0cqrjZA0c-29">
          <mxGeometry x="-0.04" relative="1" as="geometry">
            <mxPoint x="84" y="36" as="offset" />
          </mxGeometry>
        </mxCell>
        <mxCell id="nmNsUxY7JSW0cqrjZA0c-31" value="Portable&lt;br style=&quot;font-size: 8px;&quot;&gt;registry" style="aspect=fixed;perimeter=ellipsePerimeter;align=center;shadow=0;dashed=0;fontColor=default;labelBackgroundColor=none;fontSize=8;spacingTop=3;image;image=img/lib/ibm/data/device_identity_service.svg;rounded=1;strokeColor=#FF0000;fillColor=#99CCFF;html=1;" vertex="1" parent="-MQxg3rOfCB3Vdu6WzqN-1">
          <mxGeometry x="67" y="535" width="60" height="60" as="geometry" />
        </mxCell>
        <mxCell id="nmNsUxY7JSW0cqrjZA0c-32" value="" style="endArrow=classic;html=1;rounded=0;fontSize=8;" edge="1" parent="-MQxg3rOfCB3Vdu6WzqN-1" source="nmNsUxY7JSW0cqrjZA0c-24" target="nmNsUxY7JSW0cqrjZA0c-27">
          <mxGeometry width="50" height="50" relative="1" as="geometry">
            <mxPoint x="250" y="620" as="sourcePoint" />
            <mxPoint x="5" y="720" as="targetPoint" />
          </mxGeometry>
        </mxCell>
        <mxCell id="nmNsUxY7JSW0cqrjZA0c-33" value="&lt;div&gt;Internet-connected&amp;nbsp;&lt;/div&gt;&lt;div&gt;server doenlads ...&lt;/div&gt;" style="edgeLabel;html=1;align=center;verticalAlign=middle;resizable=0;points=[];fontSize=13;" vertex="1" connectable="0" parent="nmNsUxY7JSW0cqrjZA0c-32">
          <mxGeometry x="-0.0278" relative="1" as="geometry">
            <mxPoint x="20" y="17" as="offset" />
          </mxGeometry>
        </mxCell>
        <mxCell id="nmNsUxY7JSW0cqrjZA0c-34" value="" style="edgeStyle=orthogonalEdgeStyle;rounded=0;orthogonalLoop=1;jettySize=auto;html=1;fontSize=8;entryX=0.5;entryY=0;entryDx=0;entryDy=0;exitX=0.5;exitY=1;exitDx=0;exitDy=0;" edge="1" parent="-MQxg3rOfCB3Vdu6WzqN-1" target="nmNsUxY7JSW0cqrjZA0c-21" source="nmNsUxY7JSW0cqrjZA0c-4">
          <mxGeometry relative="1" as="geometry">
            <mxPoint x="460" y="560" as="sourcePoint" />
            <mxPoint x="200" y="785" as="targetPoint" />
            <Array as="points">
              <mxPoint x="463" y="560" />
              <mxPoint x="570" y="560" />
            </Array>
          </mxGeometry>
        </mxCell>
        <mxCell id="nmNsUxY7JSW0cqrjZA0c-37" value="" style="edgeStyle=orthogonalEdgeStyle;rounded=0;orthogonalLoop=1;jettySize=auto;html=1;fontSize=8;entryX=0.931;entryY=-0.034;entryDx=0;entryDy=0;entryPerimeter=0;dashed=1;" edge="1" parent="-MQxg3rOfCB3Vdu6WzqN-1" source="nmNsUxY7JSW0cqrjZA0c-22" target="nmNsUxY7JSW0cqrjZA0c-21">
          <mxGeometry relative="1" as="geometry">
            <mxPoint x="470" y="570" as="sourcePoint" />
            <mxPoint x="730" y="480" as="targetPoint" />
          </mxGeometry>
        </mxCell>
        <mxCell id="nmNsUxY7JSW0cqrjZA0c-38" value="images&lt;br&gt;are pulled from private&lt;br&gt;registry when pods&lt;br&gt;start" style="edgeLabel;html=1;align=center;verticalAlign=middle;resizable=0;points=[];" vertex="1" connectable="0" parent="nmNsUxY7JSW0cqrjZA0c-37">
          <mxGeometry x="0.352" relative="1" as="geometry">
            <mxPoint as="offset" />
          </mxGeometry>
        </mxCell>
        <mxCell id="GAwNE6V9U8NGl32eeXK2-1" value="&lt;div&gt;... and mirrors images&lt;/div&gt;&lt;div&gt;from entitled registry&lt;/div&gt;&lt;div&gt;to the private registry&lt;/div&gt;" style="endArrow=classic;html=1;rounded=0;exitX=1;exitY=0.5;exitDx=0;exitDy=0;entryX=0;entryY=0.5;entryDx=0;entryDy=0;edgeStyle=orthogonalEdgeStyle;" edge="1" parent="-MQxg3rOfCB3Vdu6WzqN-1" source="nmNsUxY7JSW0cqrjZA0c-24" target="nmNsUxY7JSW0cqrjZA0c-22">
          <mxGeometry width="50" height="50" relative="1" as="geometry">
            <mxPoint x="-300" y="210" as="sourcePoint" />
            <mxPoint x="-250" y="160" as="targetPoint" />
          </mxGeometry>
        </mxCell>
        <mxCell id="-MQxg3rOfCB3Vdu6WzqN-3" value="OpenShfit" style="" parent="-MQxg3rOfCB3Vdu6WzqN-0" />
        <mxCell id="-MQxg3rOfCB3Vdu6WzqN-5" value="Cloud Pak + Cartridges" parent="-MQxg3rOfCB3Vdu6WzqN-0" />
        <mxCell id="-MQxg3rOfCB3Vdu6WzqN-6" value="Infra services" parent="-MQxg3rOfCB3Vdu6WzqN-0" />
        <mxCell id="-MQxg3rOfCB3Vdu6WzqN-10" value="Infrastructure" style="" parent="-MQxg3rOfCB3Vdu6WzqN-0" />
        <mxCell id="vjL_8npb-omUNGleFiHJ-6" value="Actions" parent="-MQxg3rOfCB3Vdu6WzqN-0" />
      </root>
    </mxGraphModel>
  </diagram>
  <diagram name="air-gapped-portable" id="EXEZo4uSUKjN6KoI1Lou">
    <mxGraphModel dx="2255" dy="752" grid="1" gridSize="10" guides="1" tooltips="1" connect="1" arrows="1" fold="1" page="1" pageScale="1" pageWidth="827" pageHeight="1169" math="0" shadow="0">
      <root>
        <mxCell id="RLrD2wQ3GaesSWJJB9j4-0" />
        <mxCell id="RLrD2wQ3GaesSWJJB9j4-50" value="Networking" parent="RLrD2wQ3GaesSWJJB9j4-0" />
        <mxCell id="koS-oiEpQhjF7BTpV0a8-4" value="" style="container=1;collapsible=0;expand=0;recursiveResize=0;html=1;whiteSpace=wrap;strokeColor=#1192E8;fillColor=none;strokeWidth=1" vertex="1" parent="RLrD2wQ3GaesSWJJB9j4-50">
          <mxGeometry x="220" y="240" width="607" height="540" as="geometry" />
        </mxCell>
        <mxCell id="koS-oiEpQhjF7BTpV0a8-6" value="Enterprise Network" style="shape=rect;fillColor=none;aspect=fixed;resizable=0;labelPosition=right;verticalLabelPosition=middle;align=left;verticalAlign=middle;strokeColor=none;part=1;spacingLeft=5;fontSize=14;" vertex="1" parent="koS-oiEpQhjF7BTpV0a8-4">
          <mxGeometry width="48" height="48" relative="1" as="geometry" />
        </mxCell>
        <mxCell id="koS-oiEpQhjF7BTpV0a8-7" value="" style="fillColor=#1192E8;shape=mxgraph.ibm_cloud.network--enterprise;strokeColor=none;dashed=0;outlineConnect=0;html=1;labelPosition=center;verticalLabelPosition=bottom;verticalAlign=top;part=1;movable=0;resizable=0;rotatable=0;" vertex="1" parent="koS-oiEpQhjF7BTpV0a8-6">
          <mxGeometry width="24" height="24" relative="1" as="geometry">
            <mxPoint x="12" y="12" as="offset" />
          </mxGeometry>
        </mxCell>
        <mxCell id="koS-oiEpQhjF7BTpV0a8-8" value="" style="shape=rect;fillColor=#1192E8;aspect=fixed;resizable=0;labelPosition=right;verticalLabelPosition=middle;align=left;verticalAlign=middle;strokeColor=none;part=1;spacingLeft=5;fontSize=14;" vertex="1" parent="koS-oiEpQhjF7BTpV0a8-4">
          <mxGeometry width="4" height="48" relative="1" as="geometry" />
        </mxCell>
        <mxCell id="koS-oiEpQhjF7BTpV0a8-9" value="Bastion Node" style="rounded=1;whiteSpace=wrap;html=1;verticalAlign=top;fontStyle=1;strokeColor=#009900;" vertex="1" parent="koS-oiEpQhjF7BTpV0a8-4">
          <mxGeometry x="193" y="194" width="100" height="80" as="geometry" />
        </mxCell>
        <mxCell id="5LzS2MMUE6fyUfDhogka-13" value="" style="sketch=0;pointerEvents=1;shadow=0;dashed=0;html=1;strokeColor=none;fillColor=#005F4B;labelPosition=center;verticalLabelPosition=bottom;verticalAlign=top;align=center;outlineConnect=0;shape=mxgraph.veeam2.usb_drive;" parent="koS-oiEpQhjF7BTpV0a8-4" vertex="1">
          <mxGeometry x="32" y="311" width="60" height="30" as="geometry" />
        </mxCell>
        <mxCell id="5LzS2MMUE6fyUfDhogka-44" style="edgeStyle=orthogonalEdgeStyle;rounded=0;orthogonalLoop=1;jettySize=auto;html=1;fontSize=8;dashed=1;dashPattern=1 4;strokeWidth=3;entryX=0;entryY=0.5;entryDx=0;entryDy=0;" parent="koS-oiEpQhjF7BTpV0a8-4" source="5LzS2MMUE6fyUfDhogka-13" edge="1" target="koS-oiEpQhjF7BTpV0a8-9">
          <mxGeometry relative="1" as="geometry">
            <mxPoint x="30" y="270" as="sourcePoint" />
            <mxPoint x="240" y="240" as="targetPoint" />
            <Array as="points">
              <mxPoint x="62" y="270" />
              <mxPoint x="150" y="270" />
              <mxPoint x="150" y="234" />
            </Array>
          </mxGeometry>
        </mxCell>
        <mxCell id="I5g7ei2vhpWDWmoUox05-4" value="" style="sketch=0;pointerEvents=1;shadow=0;dashed=0;html=1;strokeColor=#2072B8;labelPosition=center;verticalLabelPosition=bottom;verticalAlign=top;outlineConnect=0;align=center;shape=mxgraph.office.concepts.folder;fillColor=#FFFFFF;" parent="koS-oiEpQhjF7BTpV0a8-4" vertex="1">
          <mxGeometry x="216" y="214.41" width="43.68" height="49.18" as="geometry" />
        </mxCell>
        <mxCell id="RLrD2wQ3GaesSWJJB9j4-51" value="Private cloud (disconnected)" style="shape=mxgraph.ibm.box;prType=region;fontStyle=0;verticalAlign=top;align=left;spacingLeft=32;spacingTop=4;fillColor=none;rounded=0;whiteSpace=wrap;html=1;strokeColor=#919191;strokeWidth=2;dashed=0;container=0;spacing=-4;collapsible=0;expand=0;recursiveResize=0;" parent="RLrD2wQ3GaesSWJJB9j4-50" vertex="1">
          <mxGeometry x="350" y="330" width="460" height="430" as="geometry" />
        </mxCell>
        <mxCell id="1MqOvXopCYnMAgplGYPC-1" value="" style="edgeStyle=orthogonalEdgeStyle;rounded=0;orthogonalLoop=1;jettySize=auto;html=1;dashed=1;dashPattern=1 1;strokeWidth=2;exitX=0;exitY=0.5;exitDx=0;exitDy=0;" parent="RLrD2wQ3GaesSWJJB9j4-50" target="1MqOvXopCYnMAgplGYPC-0" edge="1" source="5LzS2MMUE6fyUfDhogka-12">
          <mxGeometry relative="1" as="geometry">
            <mxPoint x="-230" y="780" as="sourcePoint" />
          </mxGeometry>
        </mxCell>
        <mxCell id="koS-oiEpQhjF7BTpV0a8-0" value="" style="container=1;collapsible=0;expand=0;recursiveResize=0;html=1;whiteSpace=wrap;strokeColor=#1192E8;fillColor=none;strokeWidth=1" vertex="1" parent="RLrD2wQ3GaesSWJJB9j4-50">
          <mxGeometry x="-220" y="240" width="160" height="540" as="geometry" />
        </mxCell>
        <mxCell id="koS-oiEpQhjF7BTpV0a8-1" value="Internet" style="shape=rect;fillColor=none;aspect=fixed;resizable=0;labelPosition=right;verticalLabelPosition=middle;align=left;verticalAlign=middle;strokeColor=none;part=1;spacingLeft=5;fontSize=14;" vertex="1" parent="koS-oiEpQhjF7BTpV0a8-0">
          <mxGeometry width="48" height="48" relative="1" as="geometry" />
        </mxCell>
        <mxCell id="koS-oiEpQhjF7BTpV0a8-2" value="" style="fillColor=#1192E8;shape=mxgraph.ibm_cloud.wikis;strokeColor=none;dashed=0;outlineConnect=0;html=1;labelPosition=center;verticalLabelPosition=bottom;verticalAlign=top;part=1;movable=0;resizable=0;rotatable=0;" vertex="1" parent="koS-oiEpQhjF7BTpV0a8-1">
          <mxGeometry width="24" height="24" relative="1" as="geometry">
            <mxPoint x="12" y="12" as="offset" />
          </mxGeometry>
        </mxCell>
        <mxCell id="koS-oiEpQhjF7BTpV0a8-3" value="" style="shape=rect;fillColor=#1192E8;aspect=fixed;resizable=0;labelPosition=right;verticalLabelPosition=middle;align=left;verticalAlign=middle;strokeColor=none;part=1;spacingLeft=5;fontSize=14;" vertex="1" parent="koS-oiEpQhjF7BTpV0a8-0">
          <mxGeometry width="4" height="48" relative="1" as="geometry" />
        </mxCell>
        <mxCell id="XrAZpiiXXmdDDJZ14P8y-0" value="" style="container=1;collapsible=0;expand=0;recursiveResize=0;html=1;whiteSpace=wrap;strokeColor=#1192E8;fillColor=none;strokeWidth=1" vertex="1" parent="RLrD2wQ3GaesSWJJB9j4-50">
          <mxGeometry x="-30" y="239" width="222" height="541" as="geometry" />
        </mxCell>
        <mxCell id="XrAZpiiXXmdDDJZ14P8y-1" value="Enterprise Network&#xa;Internet facing" style="shape=rect;fillColor=none;aspect=fixed;resizable=0;labelPosition=right;verticalLabelPosition=middle;align=left;verticalAlign=middle;strokeColor=none;part=1;spacingLeft=5;fontSize=14;" vertex="1" parent="XrAZpiiXXmdDDJZ14P8y-0">
          <mxGeometry width="48" height="48" relative="1" as="geometry" />
        </mxCell>
        <mxCell id="XrAZpiiXXmdDDJZ14P8y-2" value="" style="fillColor=#1192E8;shape=mxgraph.ibm_cloud.network--public;strokeColor=none;dashed=0;outlineConnect=0;html=1;labelPosition=center;verticalLabelPosition=bottom;verticalAlign=top;part=1;movable=0;resizable=0;rotatable=0;" vertex="1" parent="XrAZpiiXXmdDDJZ14P8y-1">
          <mxGeometry width="24" height="24" relative="1" as="geometry">
            <mxPoint x="12" y="12" as="offset" />
          </mxGeometry>
        </mxCell>
        <mxCell id="XrAZpiiXXmdDDJZ14P8y-3" value="" style="shape=rect;fillColor=#1192E8;aspect=fixed;resizable=0;labelPosition=right;verticalLabelPosition=middle;align=left;verticalAlign=middle;strokeColor=none;part=1;spacingLeft=5;fontSize=14;" vertex="1" parent="XrAZpiiXXmdDDJZ14P8y-0">
          <mxGeometry width="4" height="48" relative="1" as="geometry" />
        </mxCell>
        <mxCell id="n-HXts6Z5bdNSsukeEoE-1" value="" style="edgeStyle=orthogonalEdgeStyle;rounded=0;orthogonalLoop=1;jettySize=auto;html=1;dashed=1;dashPattern=1 4;" edge="1" parent="XrAZpiiXXmdDDJZ14P8y-0" source="1MqOvXopCYnMAgplGYPC-0" target="5LzS2MMUE6fyUfDhogka-10">
          <mxGeometry relative="1" as="geometry">
            <mxPoint x="-40" y="481" as="targetPoint" />
          </mxGeometry>
        </mxCell>
        <mxCell id="1MqOvXopCYnMAgplGYPC-0" value="Optional&lt;br&gt;Proxy" style="pointerEvents=1;shadow=0;dashed=0;html=1;strokeColor=none;fillColor=#4495D1;labelPosition=center;verticalLabelPosition=bottom;verticalAlign=top;align=center;outlineConnect=0;shape=mxgraph.veeam.2d.proxy;" parent="XrAZpiiXXmdDDJZ14P8y-0" vertex="1">
          <mxGeometry x="5" y="291" width="44.8" height="44.8" as="geometry" />
        </mxCell>
        <mxCell id="5LzS2MMUE6fyUfDhogka-6" value="" style="sketch=0;pointerEvents=1;shadow=0;dashed=0;html=1;strokeColor=none;fillColor=#505050;labelPosition=center;verticalLabelPosition=bottom;verticalAlign=top;outlineConnect=0;align=center;shape=mxgraph.office.devices.workstation;" parent="XrAZpiiXXmdDDJZ14P8y-0" vertex="1">
          <mxGeometry x="70" y="421" width="50" height="55" as="geometry" />
        </mxCell>
        <mxCell id="3X7pm5Kgk-YTn6sIfgco-0" value="" style="aspect=fixed;perimeter=ellipsePerimeter;align=center;shadow=0;dashed=0;fontColor=default;labelBackgroundColor=none;fontSize=12;spacingTop=3;image;image=img/lib/ibm/data/device_identity_service.svg;rounded=1;strokeColor=#FF0000;fillColor=#99CCFF;html=1;" vertex="1" parent="RLrD2wQ3GaesSWJJB9j4-50">
          <mxGeometry x="444" y="469" width="28" height="28" as="geometry" />
        </mxCell>
        <mxCell id="RLrD2wQ3GaesSWJJB9j4-38" value="OpenShfit" style="" parent="RLrD2wQ3GaesSWJJB9j4-0" />
        <mxCell id="c_PIJ0gxt-pc_dr-7FNC-11" value="OpenShift" style="fontStyle=0;verticalAlign=middle;align=center;spacingTop=-2;fillColor=#FF0000;rounded=0;whiteSpace=wrap;html=1;strokeColor=none;strokeWidth=3;dashed=0;container=1;collapsible=0;expand=0;recursiveResize=0;fontColor=#FFFFFF;fontSize=19;" parent="RLrD2wQ3GaesSWJJB9j4-38" vertex="1">
          <mxGeometry x="360" y="626" width="420" height="59" as="geometry" />
        </mxCell>
        <mxCell id="cy2UKIFJcyqrFq40SOo--22" value="Cloud Pak + Cartridges" parent="RLrD2wQ3GaesSWJJB9j4-0" />
        <mxCell id="c_PIJ0gxt-pc_dr-7FNC-23" value="Infra services" parent="RLrD2wQ3GaesSWJJB9j4-0" />
        <mxCell id="c_PIJ0gxt-pc_dr-7FNC-29" value="Private registry" style="aspect=fixed;perimeter=ellipsePerimeter;html=1;align=center;shadow=0;dashed=0;fontColor=#4277BB;labelBackgroundColor=#ffffff;fontSize=12;spacingTop=3;image;image=img/lib/ibm/data/device_identity_service.svg;rounded=1;strokeColor=#FF0000;fillColor=#99CCFF;" parent="c_PIJ0gxt-pc_dr-7FNC-23" vertex="1">
          <mxGeometry x="720" y="360" width="60" height="60" as="geometry" />
        </mxCell>
        <mxCell id="5LzS2MMUE6fyUfDhogka-9" value="" style="aspect=fixed;perimeter=ellipsePerimeter;html=1;align=center;shadow=0;dashed=0;spacingTop=3;image;image=img/lib/active_directory/internet_cloud.svg;fontSize=19;fontColor=#FFFFFF;fillColor=#FF0000;opacity=50;" parent="c_PIJ0gxt-pc_dr-7FNC-23" vertex="1">
          <mxGeometry x="-205" y="337" width="150" height="94.5" as="geometry" />
        </mxCell>
        <mxCell id="5LzS2MMUE6fyUfDhogka-10" value="Entitled&lt;br&gt;Container Registry" style="aspect=fixed;perimeter=ellipsePerimeter;align=center;shadow=0;dashed=0;fontColor=default;labelBackgroundColor=none;fontSize=12;spacingTop=3;image;image=img/lib/ibm/data/device_identity_service.svg;rounded=1;strokeColor=#FF0000;fillColor=#99CCFF;html=1;" parent="c_PIJ0gxt-pc_dr-7FNC-23" vertex="1">
          <mxGeometry x="-156" y="355" width="60" height="60" as="geometry" />
        </mxCell>
        <mxCell id="RLrD2wQ3GaesSWJJB9j4-1" value="Infrastructure" style="" parent="RLrD2wQ3GaesSWJJB9j4-0" />
        <mxCell id="5LzS2MMUE6fyUfDhogka-12" value="Internet-connected server" style="rounded=1;whiteSpace=wrap;html=1;verticalAlign=top;fontStyle=1" parent="RLrD2wQ3GaesSWJJB9j4-1" vertex="1">
          <mxGeometry x="48" y="429" width="97" height="244" as="geometry" />
        </mxCell>
        <mxCell id="5LzS2MMUE6fyUfDhogka-36" value="&lt;div&gt;Install Tool&amp;nbsp;&lt;/div&gt;&lt;div&gt;and Data&lt;/div&gt;" style="sketch=0;pointerEvents=1;shadow=0;dashed=0;html=1;strokeColor=#2072B8;labelPosition=center;verticalLabelPosition=bottom;verticalAlign=top;outlineConnect=0;align=center;shape=mxgraph.office.concepts.folder;fillColor=#FFFFFF;" parent="RLrD2wQ3GaesSWJJB9j4-1" vertex="1">
          <mxGeometry x="58" y="508" width="83" height="117" as="geometry" />
        </mxCell>
        <mxCell id="c_PIJ0gxt-pc_dr-7FNC-10" value="Infrastructure (compute, storage, network)" style="fontStyle=0;verticalAlign=middle;align=center;spacingTop=-2;fillColor=none;rounded=0;whiteSpace=wrap;html=1;strokeColor=#4376BB;strokeWidth=3;dashed=0;container=1;collapsible=0;expand=0;recursiveResize=0;" parent="RLrD2wQ3GaesSWJJB9j4-1" vertex="1">
          <mxGeometry x="360" y="692" width="420" height="45" as="geometry" />
        </mxCell>
        <mxCell id="5LzS2MMUE6fyUfDhogka-24" style="edgeStyle=orthogonalEdgeStyle;rounded=0;orthogonalLoop=1;jettySize=auto;html=1;fontSize=8;" parent="RLrD2wQ3GaesSWJJB9j4-1" target="5LzS2MMUE6fyUfDhogka-13" edge="1" source="5LzS2MMUE6fyUfDhogka-36">
          <mxGeometry relative="1" as="geometry">
            <mxPoint x="80" y="775" as="sourcePoint" />
          </mxGeometry>
        </mxCell>
        <mxCell id="5LzS2MMUE6fyUfDhogka-26" value="Directories holding&lt;br&gt;install tools and data&lt;br&gt;are shipped" style="edgeLabel;html=1;align=center;verticalAlign=middle;resizable=0;points=[];fontSize=13;" parent="5LzS2MMUE6fyUfDhogka-24" vertex="1" connectable="0">
          <mxGeometry x="-0.04" relative="1" as="geometry">
            <mxPoint x="84" y="36" as="offset" />
          </mxGeometry>
        </mxCell>
        <mxCell id="5LzS2MMUE6fyUfDhogka-5" value="Portable&lt;br style=&quot;font-size: 8px;&quot;&gt;registry" style="aspect=fixed;perimeter=ellipsePerimeter;align=center;shadow=0;dashed=0;fontColor=default;labelBackgroundColor=none;fontSize=8;spacingTop=3;image;image=img/lib/ibm/data/device_identity_service.svg;rounded=1;strokeColor=#FF0000;fillColor=#99CCFF;html=1;" parent="RLrD2wQ3GaesSWJJB9j4-1" vertex="1">
          <mxGeometry x="67" y="535" width="60" height="60" as="geometry" />
        </mxCell>
        <mxCell id="5LzS2MMUE6fyUfDhogka-23" value="" style="endArrow=classic;html=1;rounded=0;fontSize=8;" parent="RLrD2wQ3GaesSWJJB9j4-1" source="5LzS2MMUE6fyUfDhogka-10" target="5LzS2MMUE6fyUfDhogka-36" edge="1">
          <mxGeometry width="50" height="50" relative="1" as="geometry">
            <mxPoint x="250" y="620" as="sourcePoint" />
            <mxPoint x="5" y="720" as="targetPoint" />
          </mxGeometry>
        </mxCell>
        <mxCell id="5LzS2MMUE6fyUfDhogka-25" value="Download" style="edgeLabel;html=1;align=center;verticalAlign=middle;resizable=0;points=[];fontSize=13;" parent="5LzS2MMUE6fyUfDhogka-23" vertex="1" connectable="0">
          <mxGeometry x="-0.0278" relative="1" as="geometry">
            <mxPoint x="20" y="17" as="offset" />
          </mxGeometry>
        </mxCell>
        <mxCell id="5LzS2MMUE6fyUfDhogka-47" value="" style="edgeStyle=orthogonalEdgeStyle;rounded=0;orthogonalLoop=1;jettySize=auto;html=1;fontSize=8;entryX=0.5;entryY=0;entryDx=0;entryDy=0;" parent="RLrD2wQ3GaesSWJJB9j4-1" target="c_PIJ0gxt-pc_dr-7FNC-11" edge="1">
          <mxGeometry relative="1" as="geometry">
            <mxPoint x="460" y="560" as="sourcePoint" />
            <mxPoint x="200" y="785" as="targetPoint" />
            <Array as="points">
              <mxPoint x="570" y="560" />
            </Array>
          </mxGeometry>
        </mxCell>
        <mxCell id="5LzS2MMUE6fyUfDhogka-49" value="" style="edgeStyle=orthogonalEdgeStyle;rounded=0;orthogonalLoop=1;jettySize=auto;html=1;fontSize=8;entryX=0;entryY=0.5;entryDx=0;entryDy=0;" parent="RLrD2wQ3GaesSWJJB9j4-1" target="c_PIJ0gxt-pc_dr-7FNC-29" edge="1">
          <mxGeometry relative="1" as="geometry">
            <mxPoint x="460" y="520" as="sourcePoint" />
            <mxPoint x="745" y="576" as="targetPoint" />
            <Array as="points">
              <mxPoint x="460" y="560" />
              <mxPoint x="610" y="560" />
              <mxPoint x="610" y="390" />
            </Array>
          </mxGeometry>
        </mxCell>
        <mxCell id="5LzS2MMUE6fyUfDhogka-50" value="Images&lt;br&gt;are mirrored from the&lt;br&gt;portable registry&lt;br&gt;to the private registry" style="edgeLabel;html=1;align=center;verticalAlign=middle;resizable=0;points=[];fontSize=13;" parent="5LzS2MMUE6fyUfDhogka-49" vertex="1" connectable="0">
          <mxGeometry x="-0.04" relative="1" as="geometry">
            <mxPoint x="13" y="-50" as="offset" />
          </mxGeometry>
        </mxCell>
        <mxCell id="lolRkQTjM1deh5yL0vd4-0" value="" style="edgeStyle=orthogonalEdgeStyle;rounded=0;orthogonalLoop=1;jettySize=auto;html=1;fontSize=8;entryX=0.931;entryY=-0.034;entryDx=0;entryDy=0;entryPerimeter=0;dashed=1;" parent="RLrD2wQ3GaesSWJJB9j4-1" source="c_PIJ0gxt-pc_dr-7FNC-29" target="c_PIJ0gxt-pc_dr-7FNC-11" edge="1">
          <mxGeometry relative="1" as="geometry">
            <mxPoint x="470" y="570" as="sourcePoint" />
            <mxPoint x="730" y="480" as="targetPoint" />
          </mxGeometry>
        </mxCell>
        <mxCell id="y5WZNKCbwctZ-oFHRX_j-0" value="images&lt;br&gt;are pulled from private&lt;br&gt;registry when pods&lt;br&gt;start" style="edgeLabel;html=1;align=center;verticalAlign=middle;resizable=0;points=[];" parent="lolRkQTjM1deh5yL0vd4-0" vertex="1" connectable="0">
          <mxGeometry x="0.352" relative="1" as="geometry">
            <mxPoint as="offset" />
          </mxGeometry>
        </mxCell>
        <mxCell id="YPVjRXHErXZwTZgS6Qa9-1" value="Actions" parent="RLrD2wQ3GaesSWJJB9j4-0" />
      </root>
    </mxGraphModel>
  </diagram>
  <diagram id="KSFFAbraCV_J0LbX2TRr" name="Seite-4">
    <mxGraphModel dx="3080" dy="752" grid="1" gridSize="10" guides="1" tooltips="1" connect="1" arrows="1" fold="1" page="1" pageScale="1" pageWidth="827" pageHeight="1169" math="0" shadow="0">
      <root>
        <mxCell id="0" />
        <mxCell id="1" parent="0" />
        <mxCell id="cjA_z-U-S4LIpn3sJlDl-1" value="" style="container=1;collapsible=0;expand=0;recursiveResize=0;html=1;whiteSpace=wrap;strokeColor=#878D96;fillColor=none;dashed=1;dashPattern=1 3;strokeWidth=2" vertex="1" parent="1">
          <mxGeometry x="-890" y="480" width="540" height="600" as="geometry" />
        </mxCell>
        <mxCell id="cjA_z-U-S4LIpn3sJlDl-2" value="RZ 1" style="shape=rect;fillColor=none;aspect=fixed;resizable=0;labelPosition=right;verticalLabelPosition=middle;align=left;verticalAlign=middle;strokeColor=none;part=1;spacingLeft=5;fontSize=14;" vertex="1" parent="cjA_z-U-S4LIpn3sJlDl-1">
          <mxGeometry width="48" height="48" relative="1" as="geometry" />
        </mxCell>
        <mxCell id="cjA_z-U-S4LIpn3sJlDl-3" value="" style="fillColor=#878D96;shape=mxgraph.ibm_cloud.data--center;strokeColor=none;dashed=0;outlineConnect=0;html=1;labelPosition=center;verticalLabelPosition=bottom;verticalAlign=top;part=1;movable=0;resizable=0;rotatable=0;" vertex="1" parent="cjA_z-U-S4LIpn3sJlDl-2">
          <mxGeometry width="24" height="24" relative="1" as="geometry">
            <mxPoint x="12" y="12" as="offset" />
          </mxGeometry>
        </mxCell>
        <mxCell id="_Qcoii-X1NgDfGXr51QI-9" value="" style="container=1;collapsible=0;expand=0;recursiveResize=0;html=1;whiteSpace=wrap;strokeColor=#1192E8;fillColor=none;strokeWidth=1" vertex="1" parent="cjA_z-U-S4LIpn3sJlDl-1">
          <mxGeometry x="8" y="80" width="522" height="160" as="geometry" />
        </mxCell>
        <mxCell id="_Qcoii-X1NgDfGXr51QI-10" value="E1080 #1" style="shape=rect;fillColor=none;aspect=fixed;resizable=0;labelPosition=right;verticalLabelPosition=middle;align=left;verticalAlign=middle;strokeColor=none;part=1;spacingLeft=5;fontSize=14;" vertex="1" parent="_Qcoii-X1NgDfGXr51QI-9">
          <mxGeometry width="48" height="48" relative="1" as="geometry" />
        </mxCell>
        <mxCell id="_Qcoii-X1NgDfGXr51QI-11" value="" style="fillColor=#1192E8;shape=mxgraph.ibm_cloud.ibm--power-vs;strokeColor=none;dashed=0;outlineConnect=0;html=1;labelPosition=center;verticalLabelPosition=bottom;verticalAlign=top;part=1;movable=0;resizable=0;rotatable=0;" vertex="1" parent="_Qcoii-X1NgDfGXr51QI-10">
          <mxGeometry width="24" height="24" relative="1" as="geometry">
            <mxPoint x="12" y="12" as="offset" />
          </mxGeometry>
        </mxCell>
        <mxCell id="_Qcoii-X1NgDfGXr51QI-12" value="" style="shape=rect;fillColor=#1192E8;aspect=fixed;resizable=0;labelPosition=right;verticalLabelPosition=middle;align=left;verticalAlign=middle;strokeColor=none;part=1;spacingLeft=5;fontSize=14;" vertex="1" parent="_Qcoii-X1NgDfGXr51QI-9">
          <mxGeometry width="4" height="48" relative="1" as="geometry" />
        </mxCell>
        <mxCell id="7SPOaQ7tP4O_bcpCaYCu-44" value="&lt;div&gt;&lt;br&gt;&lt;/div&gt;&lt;div&gt;&lt;br&gt;&lt;/div&gt;&lt;div&gt;&lt;br&gt;&lt;/div&gt;&lt;div&gt;64 GB RAM&lt;/div&gt;&lt;div&gt;4 CPU (Pool)&lt;/div&gt;&lt;div&gt;100 GB Storage&lt;/div&gt;" style="container=1;collapsible=0;expand=0;recursiveResize=0;html=1;whiteSpace=wrap;strokeColor=#198038;fillColor=none;" vertex="1" parent="_Qcoii-X1NgDfGXr51QI-9">
          <mxGeometry x="55" y="40" width="208" height="100" as="geometry" />
        </mxCell>
        <mxCell id="7SPOaQ7tP4O_bcpCaYCu-45" value="OCP ppc64le&#xa;Compute Node #1" style="shape=rect;fillColor=#198038;aspect=fixed;resizable=0;labelPosition=right;verticalLabelPosition=middle;align=left;verticalAlign=middle;strokeColor=none;part=1;spacingLeft=5;fontSize=14;" vertex="1" parent="7SPOaQ7tP4O_bcpCaYCu-44">
          <mxGeometry width="48" height="48" relative="1" as="geometry" />
        </mxCell>
        <mxCell id="7SPOaQ7tP4O_bcpCaYCu-46" value="" style="fillColor=#ffffff;shape=mxgraph.ibm_cloud.ibm--power-vs;strokeColor=none;dashed=0;outlineConnect=0;html=1;labelPosition=center;verticalLabelPosition=bottom;verticalAlign=top;part=1;movable=0;resizable=0;rotatable=0;" vertex="1" parent="7SPOaQ7tP4O_bcpCaYCu-45">
          <mxGeometry width="24" height="24" relative="1" as="geometry">
            <mxPoint x="12" y="12" as="offset" />
          </mxGeometry>
        </mxCell>
        <mxCell id="_Qcoii-X1NgDfGXr51QI-5" value="" style="container=1;collapsible=0;expand=0;recursiveResize=0;html=1;whiteSpace=wrap;strokeColor=#1192E8;fillColor=none;strokeWidth=1" vertex="1" parent="cjA_z-U-S4LIpn3sJlDl-1">
          <mxGeometry x="8" y="280" width="220" height="140" as="geometry" />
        </mxCell>
        <mxCell id="_Qcoii-X1NgDfGXr51QI-6" value="Z System" style="shape=rect;fillColor=none;aspect=fixed;resizable=0;labelPosition=right;verticalLabelPosition=middle;align=left;verticalAlign=middle;strokeColor=none;part=1;spacingLeft=5;fontSize=14;" vertex="1" parent="_Qcoii-X1NgDfGXr51QI-5">
          <mxGeometry width="48" height="48" relative="1" as="geometry" />
        </mxCell>
        <mxCell id="_Qcoii-X1NgDfGXr51QI-7" value="" style="fillColor=#1192E8;shape=mxgraph.ibm_cloud.z--systems;strokeColor=none;dashed=0;outlineConnect=0;html=1;labelPosition=center;verticalLabelPosition=bottom;verticalAlign=top;part=1;movable=0;resizable=0;rotatable=0;" vertex="1" parent="_Qcoii-X1NgDfGXr51QI-6">
          <mxGeometry width="24" height="24" relative="1" as="geometry">
            <mxPoint x="12" y="12" as="offset" />
          </mxGeometry>
        </mxCell>
        <mxCell id="_Qcoii-X1NgDfGXr51QI-8" value="" style="shape=rect;fillColor=#1192E8;aspect=fixed;resizable=0;labelPosition=right;verticalLabelPosition=middle;align=left;verticalAlign=middle;strokeColor=none;part=1;spacingLeft=5;fontSize=14;" vertex="1" parent="_Qcoii-X1NgDfGXr51QI-5">
          <mxGeometry width="4" height="48" relative="1" as="geometry" />
        </mxCell>
        <mxCell id="7SPOaQ7tP4O_bcpCaYCu-14" value="" style="container=1;collapsible=0;expand=0;recursiveResize=0;html=1;whiteSpace=wrap;strokeColor=#1192E8;fillColor=none;strokeWidth=1" vertex="1" parent="cjA_z-U-S4LIpn3sJlDl-1">
          <mxGeometry x="8" y="460" width="220" height="140" as="geometry" />
        </mxCell>
        <mxCell id="7SPOaQ7tP4O_bcpCaYCu-15" value="Classic Infrastructure" style="shape=rect;fillColor=none;aspect=fixed;resizable=0;labelPosition=right;verticalLabelPosition=middle;align=left;verticalAlign=middle;strokeColor=none;part=1;spacingLeft=5;fontSize=14;" vertex="1" parent="7SPOaQ7tP4O_bcpCaYCu-14">
          <mxGeometry width="48" height="48" relative="1" as="geometry" />
        </mxCell>
        <mxCell id="7SPOaQ7tP4O_bcpCaYCu-16" value="" style="fillColor=#1192E8;shape=mxgraph.ibm_cloud.infrastructure--classic;strokeColor=none;dashed=0;outlineConnect=0;html=1;labelPosition=center;verticalLabelPosition=bottom;verticalAlign=top;part=1;movable=0;resizable=0;rotatable=0;" vertex="1" parent="7SPOaQ7tP4O_bcpCaYCu-15">
          <mxGeometry width="24" height="24" relative="1" as="geometry">
            <mxPoint x="12" y="12" as="offset" />
          </mxGeometry>
        </mxCell>
        <mxCell id="7SPOaQ7tP4O_bcpCaYCu-17" value="" style="shape=rect;fillColor=#1192E8;aspect=fixed;resizable=0;labelPosition=right;verticalLabelPosition=middle;align=left;verticalAlign=middle;strokeColor=none;part=1;spacingLeft=5;fontSize=14;" vertex="1" parent="7SPOaQ7tP4O_bcpCaYCu-14">
          <mxGeometry width="4" height="48" relative="1" as="geometry" />
        </mxCell>
        <mxCell id="cjA_z-U-S4LIpn3sJlDl-7" value="" style="container=1;collapsible=0;expand=0;recursiveResize=0;html=1;whiteSpace=wrap;strokeColor=#198038;fillColor=none;" vertex="1" parent="1">
          <mxGeometry x="-250" y="80" width="220" height="140" as="geometry" />
        </mxCell>
        <mxCell id="cjA_z-U-S4LIpn3sJlDl-8" value="Expanded Virtual Server" style="shape=rect;fillColor=#198038;aspect=fixed;resizable=0;labelPosition=right;verticalLabelPosition=middle;align=left;verticalAlign=middle;strokeColor=none;part=1;spacingLeft=5;fontSize=14;" vertex="1" parent="cjA_z-U-S4LIpn3sJlDl-7">
          <mxGeometry width="48" height="48" relative="1" as="geometry" />
        </mxCell>
        <mxCell id="cjA_z-U-S4LIpn3sJlDl-9" value="" style="fillColor=#ffffff;shape=mxgraph.ibm_cloud.ibm-cloud--virtual-server-vpc;strokeColor=none;dashed=0;outlineConnect=0;html=1;labelPosition=center;verticalLabelPosition=bottom;verticalAlign=top;part=1;movable=0;resizable=0;rotatable=0;" vertex="1" parent="cjA_z-U-S4LIpn3sJlDl-8">
          <mxGeometry width="24" height="24" relative="1" as="geometry">
            <mxPoint x="12" y="12" as="offset" />
          </mxGeometry>
        </mxCell>
        <mxCell id="cjA_z-U-S4LIpn3sJlDl-10" value="" style="container=1;collapsible=0;expand=0;recursiveResize=0;html=1;whiteSpace=wrap;strokeColor=#198038;fillColor=none;" vertex="1" parent="1">
          <mxGeometry x="50" y="80" width="220" height="140" as="geometry" />
        </mxCell>
        <mxCell id="cjA_z-U-S4LIpn3sJlDl-11" value="Expanded Virtual Server" style="shape=rect;fillColor=#198038;aspect=fixed;resizable=0;labelPosition=right;verticalLabelPosition=middle;align=left;verticalAlign=middle;strokeColor=none;part=1;spacingLeft=5;fontSize=14;" vertex="1" parent="cjA_z-U-S4LIpn3sJlDl-10">
          <mxGeometry width="48" height="48" relative="1" as="geometry" />
        </mxCell>
        <mxCell id="cjA_z-U-S4LIpn3sJlDl-12" value="" style="fillColor=#ffffff;shape=mxgraph.ibm_cloud.ibm-cloud--virtual-server-vpc;strokeColor=none;dashed=0;outlineConnect=0;html=1;labelPosition=center;verticalLabelPosition=bottom;verticalAlign=top;part=1;movable=0;resizable=0;rotatable=0;" vertex="1" parent="cjA_z-U-S4LIpn3sJlDl-11">
          <mxGeometry width="24" height="24" relative="1" as="geometry">
            <mxPoint x="12" y="12" as="offset" />
          </mxGeometry>
        </mxCell>
        <mxCell id="cjA_z-U-S4LIpn3sJlDl-13" value="" style="container=1;collapsible=0;expand=0;recursiveResize=0;html=1;whiteSpace=wrap;strokeColor=#198038;fillColor=none;" vertex="1" parent="1">
          <mxGeometry x="350" y="80" width="220" height="140" as="geometry" />
        </mxCell>
        <mxCell id="cjA_z-U-S4LIpn3sJlDl-14" value="Expanded Virtual Server" style="shape=rect;fillColor=#198038;aspect=fixed;resizable=0;labelPosition=right;verticalLabelPosition=middle;align=left;verticalAlign=middle;strokeColor=none;part=1;spacingLeft=5;fontSize=14;" vertex="1" parent="cjA_z-U-S4LIpn3sJlDl-13">
          <mxGeometry width="48" height="48" relative="1" as="geometry" />
        </mxCell>
        <mxCell id="cjA_z-U-S4LIpn3sJlDl-15" value="" style="fillColor=#ffffff;shape=mxgraph.ibm_cloud.ibm-cloud--virtual-server-vpc;strokeColor=none;dashed=0;outlineConnect=0;html=1;labelPosition=center;verticalLabelPosition=bottom;verticalAlign=top;part=1;movable=0;resizable=0;rotatable=0;" vertex="1" parent="cjA_z-U-S4LIpn3sJlDl-14">
          <mxGeometry width="24" height="24" relative="1" as="geometry">
            <mxPoint x="12" y="12" as="offset" />
          </mxGeometry>
        </mxCell>
        <mxCell id="_Qcoii-X1NgDfGXr51QI-1" value="" style="container=1;collapsible=0;expand=0;recursiveResize=0;html=1;whiteSpace=wrap;strokeColor=#198038;fillColor=none;strokeWidth=1" vertex="1" parent="1">
          <mxGeometry x="-540" y="305" width="220" height="140" as="geometry" />
        </mxCell>
        <mxCell id="_Qcoii-X1NgDfGXr51QI-2" value="OpenShift" style="shape=rect;fillColor=none;aspect=fixed;resizable=0;labelPosition=right;verticalLabelPosition=middle;align=left;verticalAlign=middle;strokeColor=none;part=1;spacingLeft=5;fontSize=14;" vertex="1" parent="_Qcoii-X1NgDfGXr51QI-1">
          <mxGeometry width="48" height="48" relative="1" as="geometry" />
        </mxCell>
        <mxCell id="_Qcoii-X1NgDfGXr51QI-3" value="" style="fillColor=#198038;shape=mxgraph.ibm_cloud.logo--openshift;strokeColor=none;dashed=0;outlineConnect=0;html=1;labelPosition=center;verticalLabelPosition=bottom;verticalAlign=top;part=1;movable=0;resizable=0;rotatable=0;" vertex="1" parent="_Qcoii-X1NgDfGXr51QI-2">
          <mxGeometry width="24" height="24" relative="1" as="geometry">
            <mxPoint x="12" y="12" as="offset" />
          </mxGeometry>
        </mxCell>
        <mxCell id="_Qcoii-X1NgDfGXr51QI-4" value="" style="shape=rect;fillColor=#198038;aspect=fixed;resizable=0;labelPosition=right;verticalLabelPosition=middle;align=left;verticalAlign=middle;strokeColor=none;part=1;spacingLeft=5;fontSize=14;" vertex="1" parent="_Qcoii-X1NgDfGXr51QI-1">
          <mxGeometry width="4" height="48" relative="1" as="geometry" />
        </mxCell>
        <mxCell id="_Qcoii-X1NgDfGXr51QI-13" value="Bastion Host" style="shape=rect;fillColor=#FA4D56;aspect=fixed;resizable=0;labelPosition=center;verticalLabelPosition=bottom;align=center;verticalAlign=top;strokeColor=none;fontSize=14;" vertex="1" parent="1">
          <mxGeometry x="-640" y="397" width="48" height="48" as="geometry" />
        </mxCell>
        <mxCell id="_Qcoii-X1NgDfGXr51QI-14" value="" style="fillColor=#ffffff;strokeColor=none;dashed=0;outlineConnect=0;html=1;labelPosition=center;verticalLabelPosition=bottom;verticalAlign=top;part=1;movable=0;resizable=0;rotatable=0;shape=mxgraph.ibm_cloud.bastion-host" vertex="1" parent="_Qcoii-X1NgDfGXr51QI-13">
          <mxGeometry width="24" height="24" relative="1" as="geometry">
            <mxPoint x="12" y="12" as="offset" />
          </mxGeometry>
        </mxCell>
        <mxCell id="_Qcoii-X1NgDfGXr51QI-15" value="Block Storage" style="shape=rect;fillColor=#0F62FE;aspect=fixed;resizable=0;labelPosition=center;verticalLabelPosition=bottom;align=center;verticalAlign=top;strokeColor=none;fontSize=14;" vertex="1" parent="1">
          <mxGeometry x="-900" y="1040" width="48" height="48" as="geometry" />
        </mxCell>
        <mxCell id="_Qcoii-X1NgDfGXr51QI-16" value="" style="fillColor=#ffffff;strokeColor=none;dashed=0;outlineConnect=0;html=1;labelPosition=center;verticalLabelPosition=bottom;verticalAlign=top;part=1;movable=0;resizable=0;rotatable=0;shape=mxgraph.ibm_cloud.block-storage" vertex="1" parent="_Qcoii-X1NgDfGXr51QI-15">
          <mxGeometry width="24" height="24" relative="1" as="geometry">
            <mxPoint x="12" y="12" as="offset" />
          </mxGeometry>
        </mxCell>
        <mxCell id="5Fhe6dwpzmv7V5AQliAf-1" value="&lt;div&gt;Proxy&lt;/div&gt;&lt;div&gt;(optional)&lt;/div&gt;" style="pointerEvents=1;shadow=0;dashed=0;html=1;strokeColor=none;fillColor=#4495D1;labelPosition=center;verticalLabelPosition=bottom;verticalAlign=top;align=center;outlineConnect=0;shape=mxgraph.veeam.2d.proxy;" vertex="1" parent="1">
          <mxGeometry x="210" y="390" width="40" height="50" as="geometry" />
        </mxCell>
        <mxCell id="5Fhe6dwpzmv7V5AQliAf-2" value="Private registry&lt;br&gt;inside private cloud" style="aspect=fixed;perimeter=ellipsePerimeter;html=1;align=center;shadow=0;dashed=0;fontColor=#4277BB;labelBackgroundColor=#ffffff;fontSize=12;spacingTop=3;image;image=img/lib/ibm/data/device_identity_service.svg;rounded=1;strokeColor=#FF0000;fillColor=#99CCFF;" vertex="1" parent="1">
          <mxGeometry x="570" y="310" width="60" height="60" as="geometry" />
        </mxCell>
        <mxCell id="NkYDjkasHE1YPcBnRhcP-1" value="Private registry&lt;br&gt;inside private cloud" style="aspect=fixed;perimeter=ellipsePerimeter;html=1;align=center;shadow=0;dashed=0;fontColor=#4277BB;labelBackgroundColor=#ffffff;fontSize=12;spacingTop=3;image;image=img/lib/ibm/data/device_identity_service.svg;rounded=1;strokeColor=#FF0000;fillColor=#99CCFF;" vertex="1" parent="1">
          <mxGeometry x="570" y="310" width="60" height="60" as="geometry" />
        </mxCell>
        <mxCell id="cjA_z-U-S4LIpn3sJlDl-4" value="" style="container=1;collapsible=0;expand=0;recursiveResize=0;html=1;whiteSpace=wrap;strokeColor=#878D96;fillColor=none;dashed=1;dashPattern=1 3;strokeWidth=2" vertex="1" parent="1">
          <mxGeometry x="-238" y="480" width="428" height="600" as="geometry" />
        </mxCell>
        <mxCell id="cjA_z-U-S4LIpn3sJlDl-5" value="RZ 2" style="shape=rect;fillColor=none;aspect=fixed;resizable=0;labelPosition=right;verticalLabelPosition=middle;align=left;verticalAlign=middle;strokeColor=none;part=1;spacingLeft=5;fontSize=14;" vertex="1" parent="cjA_z-U-S4LIpn3sJlDl-4">
          <mxGeometry width="48" height="48" relative="1" as="geometry" />
        </mxCell>
        <mxCell id="cjA_z-U-S4LIpn3sJlDl-6" value="" style="fillColor=#878D96;shape=mxgraph.ibm_cloud.data--center;strokeColor=none;dashed=0;outlineConnect=0;html=1;labelPosition=center;verticalLabelPosition=bottom;verticalAlign=top;part=1;movable=0;resizable=0;rotatable=0;" vertex="1" parent="cjA_z-U-S4LIpn3sJlDl-5">
          <mxGeometry width="24" height="24" relative="1" as="geometry">
            <mxPoint x="12" y="12" as="offset" />
          </mxGeometry>
        </mxCell>
        <mxCell id="7SPOaQ7tP4O_bcpCaYCu-2" value="" style="container=1;collapsible=0;expand=0;recursiveResize=0;html=1;whiteSpace=wrap;strokeColor=#1192E8;fillColor=none;strokeWidth=1" vertex="1" parent="cjA_z-U-S4LIpn3sJlDl-4">
          <mxGeometry x="10" y="80" width="400" height="140" as="geometry" />
        </mxCell>
        <mxCell id="7SPOaQ7tP4O_bcpCaYCu-3" value="Power Workspace" style="shape=rect;fillColor=none;aspect=fixed;resizable=0;labelPosition=right;verticalLabelPosition=middle;align=left;verticalAlign=middle;strokeColor=none;part=1;spacingLeft=5;fontSize=14;" vertex="1" parent="7SPOaQ7tP4O_bcpCaYCu-2">
          <mxGeometry width="48" height="48" relative="1" as="geometry" />
        </mxCell>
        <mxCell id="7SPOaQ7tP4O_bcpCaYCu-4" value="" style="fillColor=#1192E8;shape=mxgraph.ibm_cloud.ibm--power-vs;strokeColor=none;dashed=0;outlineConnect=0;html=1;labelPosition=center;verticalLabelPosition=bottom;verticalAlign=top;part=1;movable=0;resizable=0;rotatable=0;" vertex="1" parent="7SPOaQ7tP4O_bcpCaYCu-3">
          <mxGeometry width="24" height="24" relative="1" as="geometry">
            <mxPoint x="12" y="12" as="offset" />
          </mxGeometry>
        </mxCell>
        <mxCell id="7SPOaQ7tP4O_bcpCaYCu-5" value="" style="shape=rect;fillColor=#1192E8;aspect=fixed;resizable=0;labelPosition=right;verticalLabelPosition=middle;align=left;verticalAlign=middle;strokeColor=none;part=1;spacingLeft=5;fontSize=14;" vertex="1" parent="7SPOaQ7tP4O_bcpCaYCu-2">
          <mxGeometry width="4" height="48" relative="1" as="geometry" />
        </mxCell>
        <mxCell id="7SPOaQ7tP4O_bcpCaYCu-51" value="&lt;div&gt;&lt;br&gt;&lt;/div&gt;&lt;div&gt;&lt;br&gt;&lt;/div&gt;&lt;div&gt;&lt;br&gt;&lt;/div&gt;&lt;div&gt;64 GB RAM&lt;/div&gt;&lt;div&gt;4 CPU (Pool)&lt;/div&gt;&lt;div&gt;100 GB Storage&lt;/div&gt;" style="container=1;collapsible=0;expand=0;recursiveResize=0;html=1;whiteSpace=wrap;strokeColor=#198038;fillColor=none;" vertex="1" parent="7SPOaQ7tP4O_bcpCaYCu-2">
          <mxGeometry x="38" y="40" width="208" height="100" as="geometry" />
        </mxCell>
        <mxCell id="7SPOaQ7tP4O_bcpCaYCu-52" value="OCP ppc64le&#xa;Compute Node #3" style="shape=rect;fillColor=#198038;aspect=fixed;resizable=0;labelPosition=right;verticalLabelPosition=middle;align=left;verticalAlign=middle;strokeColor=none;part=1;spacingLeft=5;fontSize=14;" vertex="1" parent="7SPOaQ7tP4O_bcpCaYCu-51">
          <mxGeometry width="48" height="48" relative="1" as="geometry" />
        </mxCell>
        <mxCell id="7SPOaQ7tP4O_bcpCaYCu-53" value="" style="fillColor=#ffffff;shape=mxgraph.ibm_cloud.ibm--power-vs;strokeColor=none;dashed=0;outlineConnect=0;html=1;labelPosition=center;verticalLabelPosition=bottom;verticalAlign=top;part=1;movable=0;resizable=0;rotatable=0;" vertex="1" parent="7SPOaQ7tP4O_bcpCaYCu-52">
          <mxGeometry width="24" height="24" relative="1" as="geometry">
            <mxPoint x="12" y="12" as="offset" />
          </mxGeometry>
        </mxCell>
        <mxCell id="7SPOaQ7tP4O_bcpCaYCu-6" value="" style="container=1;collapsible=0;expand=0;recursiveResize=0;html=1;whiteSpace=wrap;strokeColor=#1192E8;fillColor=none;strokeWidth=1" vertex="1" parent="cjA_z-U-S4LIpn3sJlDl-4">
          <mxGeometry x="10" y="280" width="400" height="140" as="geometry" />
        </mxCell>
        <mxCell id="7SPOaQ7tP4O_bcpCaYCu-7" value="Z System" style="shape=rect;fillColor=none;aspect=fixed;resizable=0;labelPosition=right;verticalLabelPosition=middle;align=left;verticalAlign=middle;strokeColor=none;part=1;spacingLeft=5;fontSize=14;" vertex="1" parent="7SPOaQ7tP4O_bcpCaYCu-6">
          <mxGeometry width="48" height="48" relative="1" as="geometry" />
        </mxCell>
        <mxCell id="7SPOaQ7tP4O_bcpCaYCu-8" value="" style="fillColor=#1192E8;shape=mxgraph.ibm_cloud.z--systems;strokeColor=none;dashed=0;outlineConnect=0;html=1;labelPosition=center;verticalLabelPosition=bottom;verticalAlign=top;part=1;movable=0;resizable=0;rotatable=0;" vertex="1" parent="7SPOaQ7tP4O_bcpCaYCu-7">
          <mxGeometry width="24" height="24" relative="1" as="geometry">
            <mxPoint x="12" y="12" as="offset" />
          </mxGeometry>
        </mxCell>
        <mxCell id="7SPOaQ7tP4O_bcpCaYCu-9" value="" style="shape=rect;fillColor=#1192E8;aspect=fixed;resizable=0;labelPosition=right;verticalLabelPosition=middle;align=left;verticalAlign=middle;strokeColor=none;part=1;spacingLeft=5;fontSize=14;" vertex="1" parent="7SPOaQ7tP4O_bcpCaYCu-6">
          <mxGeometry width="4" height="48" relative="1" as="geometry" />
        </mxCell>
        <mxCell id="7SPOaQ7tP4O_bcpCaYCu-18" value="" style="container=1;collapsible=0;expand=0;recursiveResize=0;html=1;whiteSpace=wrap;strokeColor=#1192E8;fillColor=none;strokeWidth=1" vertex="1" parent="cjA_z-U-S4LIpn3sJlDl-4">
          <mxGeometry x="10" y="440" width="410" height="140" as="geometry" />
        </mxCell>
        <mxCell id="7SPOaQ7tP4O_bcpCaYCu-19" value="Classic Infrastructure" style="shape=rect;fillColor=none;aspect=fixed;resizable=0;labelPosition=right;verticalLabelPosition=middle;align=left;verticalAlign=middle;strokeColor=none;part=1;spacingLeft=5;fontSize=14;" vertex="1" parent="7SPOaQ7tP4O_bcpCaYCu-18">
          <mxGeometry width="48" height="48" relative="1" as="geometry" />
        </mxCell>
        <mxCell id="7SPOaQ7tP4O_bcpCaYCu-20" value="" style="fillColor=#1192E8;shape=mxgraph.ibm_cloud.infrastructure--classic;strokeColor=none;dashed=0;outlineConnect=0;html=1;labelPosition=center;verticalLabelPosition=bottom;verticalAlign=top;part=1;movable=0;resizable=0;rotatable=0;" vertex="1" parent="7SPOaQ7tP4O_bcpCaYCu-19">
          <mxGeometry width="24" height="24" relative="1" as="geometry">
            <mxPoint x="12" y="12" as="offset" />
          </mxGeometry>
        </mxCell>
        <mxCell id="7SPOaQ7tP4O_bcpCaYCu-21" value="" style="shape=rect;fillColor=#1192E8;aspect=fixed;resizable=0;labelPosition=right;verticalLabelPosition=middle;align=left;verticalAlign=middle;strokeColor=none;part=1;spacingLeft=5;fontSize=14;" vertex="1" parent="7SPOaQ7tP4O_bcpCaYCu-18">
          <mxGeometry width="4" height="48" relative="1" as="geometry" />
        </mxCell>
        <mxCell id="7SPOaQ7tP4O_bcpCaYCu-10" value="" style="container=1;collapsible=0;expand=0;recursiveResize=0;html=1;whiteSpace=wrap;strokeColor=#198038;fillColor=none;strokeWidth=1" vertex="1" parent="1">
          <mxGeometry x="340" y="755" width="220" height="140" as="geometry" />
        </mxCell>
        <mxCell id="7SPOaQ7tP4O_bcpCaYCu-11" value="Z Containers" style="shape=rect;fillColor=none;aspect=fixed;resizable=0;labelPosition=right;verticalLabelPosition=middle;align=left;verticalAlign=middle;strokeColor=none;part=1;spacingLeft=5;fontSize=14;" vertex="1" parent="7SPOaQ7tP4O_bcpCaYCu-10">
          <mxGeometry width="48" height="48" relative="1" as="geometry" />
        </mxCell>
        <mxCell id="7SPOaQ7tP4O_bcpCaYCu-12" value="" style="fillColor=#198038;shape=mxgraph.ibm_cloud.ibm-z-os--containers;strokeColor=none;dashed=0;outlineConnect=0;html=1;labelPosition=center;verticalLabelPosition=bottom;verticalAlign=top;part=1;movable=0;resizable=0;rotatable=0;" vertex="1" parent="7SPOaQ7tP4O_bcpCaYCu-11">
          <mxGeometry width="24" height="24" relative="1" as="geometry">
            <mxPoint x="12" y="12" as="offset" />
          </mxGeometry>
        </mxCell>
        <mxCell id="7SPOaQ7tP4O_bcpCaYCu-13" value="" style="shape=rect;fillColor=#198038;aspect=fixed;resizable=0;labelPosition=right;verticalLabelPosition=middle;align=left;verticalAlign=middle;strokeColor=none;part=1;spacingLeft=5;fontSize=14;" vertex="1" parent="7SPOaQ7tP4O_bcpCaYCu-10">
          <mxGeometry width="4" height="48" relative="1" as="geometry" />
        </mxCell>
        <mxCell id="7SPOaQ7tP4O_bcpCaYCu-22" value="" style="container=1;collapsible=0;expand=0;recursiveResize=0;html=1;whiteSpace=wrap;strokeColor=#198038;fillColor=none;" vertex="1" parent="1">
          <mxGeometry x="340" y="925" width="220" height="140" as="geometry" />
        </mxCell>
        <mxCell id="7SPOaQ7tP4O_bcpCaYCu-23" value="Expanded Virtual Server" style="shape=rect;fillColor=#198038;aspect=fixed;resizable=0;labelPosition=right;verticalLabelPosition=middle;align=left;verticalAlign=middle;strokeColor=none;part=1;spacingLeft=5;fontSize=14;" vertex="1" parent="7SPOaQ7tP4O_bcpCaYCu-22">
          <mxGeometry width="48" height="48" relative="1" as="geometry" />
        </mxCell>
        <mxCell id="7SPOaQ7tP4O_bcpCaYCu-24" value="" style="fillColor=#ffffff;shape=mxgraph.ibm_cloud.ibm-cloud--virtual-server-vpc;strokeColor=none;dashed=0;outlineConnect=0;html=1;labelPosition=center;verticalLabelPosition=bottom;verticalAlign=top;part=1;movable=0;resizable=0;rotatable=0;" vertex="1" parent="7SPOaQ7tP4O_bcpCaYCu-23">
          <mxGeometry width="24" height="24" relative="1" as="geometry">
            <mxPoint x="12" y="12" as="offset" />
          </mxGeometry>
        </mxCell>
        <mxCell id="7SPOaQ7tP4O_bcpCaYCu-25" value="" style="container=1;collapsible=0;expand=0;recursiveResize=0;html=1;whiteSpace=wrap;strokeColor=#198038;fillColor=none;" vertex="1" parent="1">
          <mxGeometry x="340" y="585" width="220" height="140" as="geometry" />
        </mxCell>
        <mxCell id="7SPOaQ7tP4O_bcpCaYCu-26" value="Expanded Classic Virtual&#xa;Server" style="shape=rect;fillColor=#198038;aspect=fixed;resizable=0;labelPosition=right;verticalLabelPosition=middle;align=left;verticalAlign=middle;strokeColor=none;part=1;spacingLeft=5;fontSize=14;" vertex="1" parent="7SPOaQ7tP4O_bcpCaYCu-25">
          <mxGeometry width="48" height="48" relative="1" as="geometry" />
        </mxCell>
        <mxCell id="7SPOaQ7tP4O_bcpCaYCu-27" value="" style="fillColor=#ffffff;shape=mxgraph.ibm_cloud.ibm-cloud--virtual-server-classic;strokeColor=none;dashed=0;outlineConnect=0;html=1;labelPosition=center;verticalLabelPosition=bottom;verticalAlign=top;part=1;movable=0;resizable=0;rotatable=0;" vertex="1" parent="7SPOaQ7tP4O_bcpCaYCu-26">
          <mxGeometry width="24" height="24" relative="1" as="geometry">
            <mxPoint x="12" y="12" as="offset" />
          </mxGeometry>
        </mxCell>
        <mxCell id="7SPOaQ7tP4O_bcpCaYCu-28" value="Block Storage" style="shape=rect;fillColor=#0F62FE;aspect=fixed;resizable=0;labelPosition=center;verticalLabelPosition=bottom;align=center;verticalAlign=top;strokeColor=none;fontSize=14;" vertex="1" parent="1">
          <mxGeometry x="-760" y="1060" width="48" height="48" as="geometry" />
        </mxCell>
        <mxCell id="7SPOaQ7tP4O_bcpCaYCu-29" value="" style="fillColor=#ffffff;strokeColor=none;dashed=0;outlineConnect=0;html=1;labelPosition=center;verticalLabelPosition=bottom;verticalAlign=top;part=1;movable=0;resizable=0;rotatable=0;shape=mxgraph.ibm_cloud.block-storage" vertex="1" parent="7SPOaQ7tP4O_bcpCaYCu-28">
          <mxGeometry width="24" height="24" relative="1" as="geometry">
            <mxPoint x="12" y="12" as="offset" />
          </mxGeometry>
        </mxCell>
        <mxCell id="7SPOaQ7tP4O_bcpCaYCu-30" value="Object Storage" style="shape=rect;fillColor=#0F62FE;aspect=fixed;resizable=0;labelPosition=center;verticalLabelPosition=bottom;align=center;verticalAlign=top;strokeColor=none;fontSize=14;" vertex="1" parent="1">
          <mxGeometry x="-640" y="1120" width="48" height="48" as="geometry" />
        </mxCell>
        <mxCell id="7SPOaQ7tP4O_bcpCaYCu-31" value="" style="fillColor=#ffffff;strokeColor=none;dashed=0;outlineConnect=0;html=1;labelPosition=center;verticalLabelPosition=bottom;verticalAlign=top;part=1;movable=0;resizable=0;rotatable=0;shape=mxgraph.ibm_cloud.object-storage" vertex="1" parent="7SPOaQ7tP4O_bcpCaYCu-30">
          <mxGeometry width="24" height="24" relative="1" as="geometry">
            <mxPoint x="12" y="12" as="offset" />
          </mxGeometry>
        </mxCell>
        <mxCell id="7SPOaQ7tP4O_bcpCaYCu-32" value="Proxy Server" style="shape=rect;fillColor=#1192E8;aspect=fixed;resizable=0;labelPosition=center;verticalLabelPosition=bottom;align=center;verticalAlign=top;strokeColor=none;fontSize=14;" vertex="1" parent="1">
          <mxGeometry x="-720" y="1180" width="48" height="48" as="geometry" />
        </mxCell>
        <mxCell id="7SPOaQ7tP4O_bcpCaYCu-33" value="" style="fillColor=#ffffff;strokeColor=none;dashed=0;outlineConnect=0;html=1;labelPosition=center;verticalLabelPosition=bottom;verticalAlign=top;part=1;movable=0;resizable=0;rotatable=0;shape=mxgraph.ibm_cloud.server--proxy" vertex="1" parent="7SPOaQ7tP4O_bcpCaYCu-32">
          <mxGeometry width="24" height="24" relative="1" as="geometry">
            <mxPoint x="12" y="12" as="offset" />
          </mxGeometry>
        </mxCell>
        <mxCell id="7SPOaQ7tP4O_bcpCaYCu-34" value="DNS Services" style="shape=rect;fillColor=#1192E8;aspect=fixed;resizable=0;labelPosition=center;verticalLabelPosition=bottom;align=center;verticalAlign=top;strokeColor=none;fontSize=14;" vertex="1" parent="1">
          <mxGeometry x="-550" y="1210" width="48" height="48" as="geometry" />
        </mxCell>
        <mxCell id="7SPOaQ7tP4O_bcpCaYCu-35" value="" style="fillColor=#ffffff;strokeColor=none;dashed=0;outlineConnect=0;html=1;labelPosition=center;verticalLabelPosition=bottom;verticalAlign=top;part=1;movable=0;resizable=0;rotatable=0;shape=mxgraph.ibm_cloud.dns-services" vertex="1" parent="7SPOaQ7tP4O_bcpCaYCu-34">
          <mxGeometry width="24" height="24" relative="1" as="geometry">
            <mxPoint x="12" y="12" as="offset" />
          </mxGeometry>
        </mxCell>
        <mxCell id="7SPOaQ7tP4O_bcpCaYCu-36" value="SAN Fabric" style="shape=rect;fillColor=#1192E8;aspect=fixed;resizable=0;labelPosition=center;verticalLabelPosition=bottom;align=center;verticalAlign=top;strokeColor=none;fontSize=14;" vertex="1" parent="1">
          <mxGeometry x="-800" y="892" width="48" height="48" as="geometry" />
        </mxCell>
        <mxCell id="7SPOaQ7tP4O_bcpCaYCu-37" value="" style="fillColor=#ffffff;strokeColor=none;dashed=0;outlineConnect=0;html=1;labelPosition=center;verticalLabelPosition=bottom;verticalAlign=top;part=1;movable=0;resizable=0;rotatable=0;shape=mxgraph.ibm_cloud.ibm-cloud--transit-gateway" vertex="1" parent="7SPOaQ7tP4O_bcpCaYCu-36">
          <mxGeometry width="24" height="24" relative="1" as="geometry">
            <mxPoint x="12" y="12" as="offset" />
          </mxGeometry>
        </mxCell>
        <mxCell id="7SPOaQ7tP4O_bcpCaYCu-41" value="VLAN" style="shape=rect;fillColor=#1192E8;aspect=fixed;resizable=0;labelPosition=center;verticalLabelPosition=bottom;align=center;verticalAlign=top;strokeColor=none;fontSize=14;" vertex="1" parent="1">
          <mxGeometry x="-170" y="1210" width="48" height="48" as="geometry" />
        </mxCell>
        <mxCell id="7SPOaQ7tP4O_bcpCaYCu-42" value="" style="fillColor=#ffffff;strokeColor=none;dashed=0;outlineConnect=0;html=1;labelPosition=center;verticalLabelPosition=bottom;verticalAlign=top;part=1;movable=0;resizable=0;rotatable=0;shape=mxgraph.ibm_cloud.vlan" vertex="1" parent="7SPOaQ7tP4O_bcpCaYCu-41">
          <mxGeometry width="24" height="24" relative="1" as="geometry">
            <mxPoint x="12" y="12" as="offset" />
          </mxGeometry>
        </mxCell>
        <mxCell id="7SPOaQ7tP4O_bcpCaYCu-48" value="&lt;div&gt;&lt;br&gt;&lt;/div&gt;&lt;div&gt;&lt;br&gt;&lt;/div&gt;&lt;div&gt;&lt;br&gt;&lt;/div&gt;&lt;div&gt;64 GB RAM&lt;/div&gt;&lt;div&gt;4 CPU (Pool)&lt;/div&gt;&lt;div&gt;100 GB Storage&lt;/div&gt;" style="container=1;collapsible=0;expand=0;recursiveResize=0;html=1;whiteSpace=wrap;strokeColor=#198038;fillColor=none;" vertex="1" parent="1">
          <mxGeometry x="-580" y="600" width="208" height="100" as="geometry" />
        </mxCell>
        <mxCell id="7SPOaQ7tP4O_bcpCaYCu-49" value="OCP ppc64le&#xa;Compute Node #2" style="shape=rect;fillColor=#198038;aspect=fixed;resizable=0;labelPosition=right;verticalLabelPosition=middle;align=left;verticalAlign=middle;strokeColor=none;part=1;spacingLeft=5;fontSize=14;" vertex="1" parent="7SPOaQ7tP4O_bcpCaYCu-48">
          <mxGeometry width="48" height="48" relative="1" as="geometry" />
        </mxCell>
        <mxCell id="7SPOaQ7tP4O_bcpCaYCu-50" value="" style="fillColor=#ffffff;shape=mxgraph.ibm_cloud.ibm--power-vs;strokeColor=none;dashed=0;outlineConnect=0;html=1;labelPosition=center;verticalLabelPosition=bottom;verticalAlign=top;part=1;movable=0;resizable=0;rotatable=0;" vertex="1" parent="7SPOaQ7tP4O_bcpCaYCu-49">
          <mxGeometry width="24" height="24" relative="1" as="geometry">
            <mxPoint x="12" y="12" as="offset" />
          </mxGeometry>
        </mxCell>
      </root>
    </mxGraphModel>
  </diagram>
</mxfile>
